<?xml version="1.0" encoding="utf-8"?>
<!-- Generator: Adobe Illustrator 26.0.1, SVG Export Plug-In . SVG Version: 6.00 Build 0)  -->
<svg version="1.1" id="Capa_1" xmlns="http://www.w3.org/2000/svg" xmlns:xlink="http://www.w3.org/1999/xlink" x="0px" y="0px"
	 viewBox="0 0 792 551.9" style="enable-background:new 0 0 792 551.9;" xml:space="preserve">
<style type="text/css">
	.st0{opacity:0.39;fill:none;stroke:#7A7A7A;stroke-width:0.8149;stroke-miterlimit:10;}
	.st1{opacity:0.39;fill:none;stroke:#7A7A7A;stroke-width:0.9579;stroke-miterlimit:10;}
	.st2{opacity:0.34;fill:#FAB412;}
	.st3{opacity:0.47;fill:#FAB412;}
	.st4{fill:#FAB412;}
	.st5{fill:#EEF5E5;}
	.st6{fill:#FAFCF6;}
	.st7{font-family:'Roboto-Regular';}
	.st8{font-size:8.6215px;}
	.st9{letter-spacing:6;}
	.st10{opacity:0.39;fill:none;stroke:#7A7A7A;stroke-width:0.9579;stroke-linecap:square;stroke-miterlimit:10;}
	.st11{fill:#77B62F;}
	.st12{fill:#FFFFFF;}
	.st13{font-family:'Roboto-Bold';}
	.st14{font-size:11.5079px;}
	.st15{opacity:0.36;fill:#77B62F;}
	.st16{fill:none;}
	.st17{fill:none;stroke:#7A7A7A;stroke-width:0.9579;stroke-miterlimit:10;}
	.st18{fill:#898C2F;}
	.st19{fill:#D3BAA1;}
	.st20{fill:#A28567;}
	.st21{fill:#B68861;}
	.st22{fill:#EFBA95;}
	.st23{fill:#B28F75;}
	.st24{fill:#F39C89;}
	.st25{fill:#E2775E;}
	.st26{fill:#E4CBB1;}
	.st27{fill:#F0D6BE;}
	.st28{fill:#FAE5CE;}
	.st29{fill:#D1B399;}
	.st30{fill:#9CA539;}
	.st31{fill:#AA7349;}
	.st32{fill:#A06C46;}
	.st33{fill:#CD895A;}
	.st34{fill:#8A725C;}
	.st35{fill:#CA8352;}
	.st36{fill:#804F2D;}
	.st37{opacity:0.8;fill:#9E7E68;}
	.st38{filter:url(#Adobe_OpacityMaskFilter);}
	.st39{filter:url(#Adobe_OpacityMaskFilter_00000060736472356152280920000009337144997901890218_);}
	
		.st40{mask:url(#SVGID_00000180334843432654745510000016488887221435102367_);fill:url(#SVGID_00000182529815354194378350000012360234089512011947_);}
	.st41{opacity:0.6;fill:url(#SVGID_00000024705587352426630050000009991129103117863074_);}
	.st42{fill:#85654F;}
	.st43{fill:#F9E1B7;}
	.st44{fill:#E6C796;}
	.st45{fill:#614431;}
	.st46{fill:#E0CCA4;}
	.st47{fill:#BFA67C;}
	.st48{fill:#EAD7B2;}
	.st49{fill:#CD3F1E;}
	.st50{fill:#E84727;}
	.st51{fill:#F7E2C1;}
	.st52{fill:#9DAD3D;}
	.st53{fill:#D1B88C;}
	.st54{fill:#F08155;}
	.st55{fill:#D9673F;}
	.st56{fill:#F2DDB8;}
	.st57{fill:#F9E7CA;}
	.st58{fill:#F1BD39;}
	.st59{fill:#D29B1B;}
	.st60{fill:#C7AD80;}
	.st61{fill:#6E5C42;}
	.st62{fill:#CA5F39;}
	.st63{fill:#FFDB45;}
	.st64{filter:url(#Adobe_OpacityMaskFilter_00000123409623580826103690000009805144583153743503_);}
	.st65{filter:url(#Adobe_OpacityMaskFilter_00000108291848996040456970000009458892543099818175_);}
	
		.st66{mask:url(#SVGID_00000082369230821091177360000011548442689254335122_);fill:url(#SVGID_00000147940008050963530490000005832340070638471316_);}
	.st67{opacity:0.6;fill:url(#SVGID_00000034781956724467628360000012648686765404715401_);}
	.st68{fill:#E5CEC3;}
	.st69{fill:#E8A62D;}
	.st70{fill:#B29C8F;}
	.st71{fill:#DCC0B4;}
	.st72{fill:#CE4924;}
	.st73{fill:#EA542A;}
	.st74{fill:#F5E3DA;}
	.st75{fill:#FCC047;}
	.st76{fill:#4C3E2A;}
	.st77{fill:#FEF0E9;}
	.st78{fill:#FFD254;}
	.st79{filter:url(#Adobe_OpacityMaskFilter_00000080193218009759711270000008141247003629363117_);}
	.st80{filter:url(#Adobe_OpacityMaskFilter_00000155144736732414518030000004454002586608806285_);}
	
		.st81{mask:url(#SVGID_00000029748652371083418350000013434802623175742616_);fill:url(#SVGID_00000062190307701643789810000007471873241798625712_);}
	.st82{opacity:0.6;fill:url(#SVGID_00000156573034505437732540000011091574477724626308_);}
</style>
<g>
	<polyline class="st0" points="186,418.4 207.7,418.4 221.6,397.5 221.9,396.9 207.7,375.2 186,375.2 	"/>
</g>
<g>
	<polyline class="st0" points="186,91.9 207.7,91.9 221.6,70.9 221.9,70.3 207.7,48.7 186,48.7 	"/>
</g>
<g>
	<polyline class="st1" points="617.2,442 595.6,442 581.7,471 581.3,471.8 595.6,501.8 617.2,501.8 	"/>
</g>
<g>
	<polyline class="st1" points="617.2,169.6 595.6,169.6 581.7,198.6 581.3,199.4 595.6,229.3 617.2,229.3 	"/>
</g>
<g>
	<polyline class="st1" points="617.2,334.9 595.6,334.9 581.7,363.9 581.3,364.7 595.6,394.7 617.2,394.7 	"/>
</g>
<g>
	<g>
		<path class="st2" d="M439.2,214.8h142.1v-30.7h-132c-5.6,0-10.1,4.5-10.1,10.1V214.8z"/>
		<path class="st3" d="M450,214.8h131.3v-30.7H467.4c-9.6,0-17.4,7.8-17.4,17.4V214.8z"/>
	</g>
	<path class="st4" d="M579.2,214.8h2.1v-30.7l0,0c-1.2,0-2.1,0.9-2.1,2.1V214.8z"/>
</g>
<g>
	<g>
		<path class="st2" d="M439.2,85.6h142.1V54.9h-132c-5.6,0-10.1,4.5-10.1,10.1V85.6z"/>
		<path class="st3" d="M450,85.6h131.3V54.9H467.4c-9.6,0-17.4,7.8-17.4,17.4V85.6z"/>
	</g>
	<path class="st4" d="M579.2,85.6h2.1V54.9l0,0c-1.2,0-2.1,0.9-2.1,2.1V85.6z"/>
</g>
<g>
	<g>
		<path class="st2" d="M439.2,378.9h142.1v-30.7h-132c-5.6,0-10.1,4.5-10.1,10.1V378.9z"/>
		<path class="st3" d="M450,378.9h131.3v-30.7H467.4c-9.6,0-17.4,7.8-17.4,17.4V378.9z"/>
	</g>
	<path class="st4" d="M579.2,378.9h2.1v-30.7l0,0c-1.2,0-2.1,0.9-2.1,2.1V378.9z"/>
</g>
<g>
	<g>
		<path class="st2" d="M439.2,486.5h142.1v-30.7h-132c-5.6,0-10.1,4.5-10.1,10.1V486.5z"/>
		<path class="st3" d="M450,486.5h131.3v-30.7H467.4c-9.6,0-17.4,7.8-17.4,17.4V486.5z"/>
	</g>
	<path class="st4" d="M579.2,486.5h2.1v-30.7l0,0c-1.2,0-2.1,0.9-2.1,2.1V486.5z"/>
</g>
<g>
	<g>
		<path class="st2" d="M364.1,486.5H222v-30.7h132c5.6,0,10.1,4.5,10.1,10.1V486.5z"/>
		<path class="st3" d="M353.2,486.5H222v-30.7h113.8c9.6,0,17.4,7.8,17.4,17.4V486.5z"/>
	</g>
	<path class="st4" d="M224.1,486.5H222v-30.7l0,0c1.2,0,2.1,0.9,2.1,2.1V486.5z"/>
</g>
<g>
	<path class="st2" d="M364.1,85.6H222V54.9h132c5.6,0,10.1,4.5,10.1,10.1V85.6z"/>
	<path class="st3" d="M353.2,85.6H222V54.9h113.8c9.6,0,17.4,7.8,17.4,17.4V85.6z"/>
</g>
<path class="st2" d="M364.1,214.8H222v-30.7h132c5.6,0,10.1,4.5,10.1,10.1V214.8z"/>
<rect x="43.9" y="33.8" class="st5" width="142.1" height="29.6"/>
<rect x="43.9" y="77.4" class="st5" width="142.1" height="29.6"/>
<rect x="45.5" y="130.4" class="st5" width="142.1" height="32.6"/>
<rect x="45.5" y="185.5" class="st5" width="142.1" height="39.1"/>
<rect x="45.5" y="257.4" class="st5" width="142.1" height="19.8"/>
<rect x="45.5" y="298.2" class="st5" width="142.1" height="29.2"/>
<rect x="43.9" y="360.7" class="st5" width="142.1" height="29.2"/>
<rect x="43.9" y="398.6" class="st5" width="142.1" height="40.6"/>
<rect x="45.5" y="162.9" class="st6" width="142.1" height="22.5"/>
<rect x="45.5" y="223.9" class="st6" width="142.1" height="33.5"/>
<rect x="45.5" y="277.2" class="st6" width="142.1" height="20.9"/>
<path class="st3" d="M353.2,214.8H222v-30.7h113.8c9.6,0,17.4,7.8,17.4,17.4V214.8z"/>
<g>
	<path class="st2" d="M364.1,412.2H222v-30.7h132c5.6,0,10.1,4.5,10.1,10.1V412.2z"/>
	<path class="st3" d="M353.2,412.2H222v-30.7h113.8c9.6,0,17.4,7.8,17.4,17.4V412.2z"/>
</g>
<g>
	<text transform="matrix(1 0 0 1 79.7068 50.912)" class="st7 st8">Plan de producción</text>
</g>
<rect x="617.2" y="154.7" class="st5" width="142.1" height="29.6"/>
<g>
	<text transform="matrix(1 0 0 1 644.4363 171.7645)" class="st7 st8">Clases y características</text>
</g>
<rect x="617.2" y="215.6" class="st5" width="142.1" height="29.6"/>
<g>
	<text transform="matrix(1 0 0 1 663.0389 232.6893)" class="st7 st8">Componentes</text>
</g>
<rect x="617.2" y="321.1" class="st5" width="142.1" height="29.6"/>
<g>
	<text transform="matrix(1 0 0 1 663.159 338.2294)" class="st7 st8">Interpretación</text>
</g>
<rect x="617.2" y="379.7" class="st5" width="142.1" height="29.6"/>
<g>
	<text transform="matrix(1 0 0 1 658.8817 396.8192)" class="st7 st8">Implementación</text>
</g>
<rect x="617.2" y="427.8" class="st5" width="142.1" height="29.6"/>
<g>
	<text transform="matrix(1 0 0 1 657.4256 446.8163)" class="st7 st8">Recurso humano</text>
</g>
<rect x="617.2" y="486.3" class="st5" width="142.1" height="29.6"/>
<g>
	<text transform="matrix(1 0 0 1 669.9139 503.454)" class="st7 st8">Normativa</text>
</g>
<g>
	<text transform="matrix(1 0 0 1 83.6805 90.0008)"><tspan x="0" y="0" class="st7 st8">Programación de</tspan><tspan x="-8.8" y="10.3" class="st7 st8">actividades pecuarias</tspan></text>
</g>
<g>
	<text transform="matrix(1 0 0 1 62.3349 145.0508)"><tspan x="0" y="0" class="st7 st8">Prevención de enfermedades</tspan><tspan x="23.9" y="10.3" class="st7 st8">de control oficial</tspan></text>
</g>
<g>
	<text transform="matrix(1 0 0 1 77.7045 372.674)"><tspan x="0" y="0" class="st7 st8">Buenas prácticas de</tspan><tspan x="0.1" y="10.3" class="st7 st8">alimentación animal</tspan></text>
</g>
<g>
	<text transform="matrix(1 0 0 1 78.2201 411.0894)"><tspan x="0" y="0" class="st7 st8">Almacenamiento de</tspan><tspan x="-13.7" y="10.3" class="st7 st8"> alimentos, materia prima e</tspan><tspan x="2" y="20.7" class="st7 st8">insumos pecuarios</tspan></text>
</g>
<g>
	<text transform="matrix(1 0 0 1 80.9506 176.6435)"><tspan x="0" y="0" class="st7 st8">Área de cuarentena</tspan><tspan x="-19.4" y="20.7" class="st7 st8">Almacenamiento y transporte</tspan><tspan x="-12" y="31" class="st7 st8">de productos biológicos y</tspan><tspan x="-15" y="41.4" class="st7 st8">medicamentos veterinarios</tspan><tspan x="-14.7" y="62.1" class="st7 st8 st9"> </tspan><tspan x="-6.1" y="62.1" class="st7 st8">Técnicas para aplicación</tspan><tspan x="-20.7" y="72.4" class="st7 st8">de medicamentos veterinarios</tspan><tspan x="5.7" y="93.1" class="st7 st8">Tiempo de retiro</tspan><tspan x="-25.8" y="113.8" class="st7 st8">Notificación de efectos adversos</tspan><tspan x="5.1" y="134.5" class="st7 st8">Guía sanitaria de</tspan><tspan x="-1.2" y="144.8" class="st7 st8">movilización interna</tspan></text>
</g>
<g>
	<text transform="matrix(1 0 0 1 470.7829 72.7967)" class="st7 st8">Producción pecuaria</text>
</g>
<g>
	<text transform="matrix(1 0 0 1 261.3254 201.9745)" class="st7 st8">Plan sanitario</text>
</g>
<g>
	<text transform="matrix(1 0 0 1 252.9128 399.3389)" class="st7 st8">Plan de alimentación</text>
</g>
<g>
	<text transform="matrix(1 0 0 1 488.7961 196.8016)"><tspan x="0" y="0" class="st7 st8">Sistema de</tspan><tspan x="-17.8" y="10.3" class="st7 st8">producción pecuario</tspan></text>
</g>
<g>
	<text transform="matrix(1 0 0 1 457.2868 366.0458)" class="st7 st8">Buenas prácticas pecuarias</text>
</g>
<g>
	<text transform="matrix(1 0 0 1 474.2146 473.6776)" class="st7 st8">Legislación laboral</text>
</g>
<path class="st1" d="M414.9,261.8v-55.6c0,0,5.8-7.2,6.3-7.3c6,0,18,0,18,0"/>
<path class="st1" d="M408.5,261.8V79.9c0,0,5.8-7.2,6.3-7.3c6,0,24.7,0,24.7,0"/>
<path class="st1" d="M395.1,261.8V79.9c0,0-5.8-7.2-6.3-7.3c-6,0-24.7,0-24.7,0"/>
<path class="st1" d="M388.4,261.8v-55.6c0,0-5.8-7.2-6.3-7.3c-6,0-18,0-18,0"/>
<path class="st10" d="M388.7,300.7v90.6c0,0-5.8,7.2-6.3,7.3c-6,0-17.9,0-17.9,0"/>
<path class="st10" d="M395.1,300.7v163.9c0,0-5.8,7.2-6.3,7.3c-6,0-24.2,0-24.2,0"/>
<path class="st10" d="M408.5,300.7v163.9c0,0,5.8,7.2,6.3,7.3c6,0,24,0,24,0"/>
<path class="st10" d="M415.2,300.7v55.6c0,0,5.8,7.2,6.3,7.3c6,0,17.3,0,17.3,0"/>
<rect x="327.1" y="258.8" class="st11" width="141.9" height="44.8"/>
<text transform="matrix(1 0 0 1 347.6009 277.2341)"><tspan x="0" y="0" class="st12 st13 st14">Programación de la</tspan><tspan x="-2.4" y="14.7" class="st12 st13 st14">producción pecuaria</tspan></text>
<rect x="318.8" y="258.8" transform="matrix(-1 -1.224647e-16 1.224647e-16 -1 645.8489 562.4722)" class="st15" width="8.3" height="44.8"/>
<rect x="469" y="258.8" transform="matrix(-1 -1.224647e-16 1.224647e-16 -1 946.2676 562.4722)" class="st15" width="8.3" height="44.8"/>
<path class="st16" d="M222,70.3"/>
<g>
	<text transform="matrix(1 0 0 1 244.5845 66.8465)"><tspan x="0" y="0" class="st7 st8">Programa de producción </tspan><tspan x="-5" y="10.3" class="st7 st8">(concepto y características)</tspan></text>
</g>
<g>
	<text transform="matrix(1 0 0 1 253.6181 473.6776)" class="st7 st8">Softwares pecuarios</text>
</g>
<path class="st4" d="M224.1,85.6H222V54.9l0,0c1.2,0,2.1,0.9,2.1,2.1V85.6z"/>
<path class="st4" d="M224.1,412.2H222v-30.7l0,0c1.2,0,2.1,0.9,2.1,2.1V412.2z"/>
<path class="st17" d="M617.2,215.5"/>
<g>
	<defs>
		<rect id="SVGID_1_" x="458" y="259.6" width="43.3" height="45"/>
	</defs>
	<clipPath id="SVGID_00000023259666430847307610000007569017893179317148_">
		<use xlink:href="#SVGID_1_"  style="overflow:visible;"/>
	</clipPath>
</g>
<g>
	<g>
		<path class="st18" d="M298.1,282.9c-1,2.7-1.8,4.6-2.2,4.4c-0.4-0.2,1.3-4,1.3-4s-2.6,4.1-2.9,3.9c-0.3-0.2,2.3-3.6,2.3-3.6
			s-2.9,2.8-3.1,2.4c-0.2-0.5,2.8-2.8,2.8-2.8L298.1,282.9z"/>
		<path class="st19" d="M310.8,267.6c-2.4-0.1-3.7,0.8-5.1,1.9C308.4,270,309.7,269.4,310.8,267.6z"/>
		<path class="st19" d="M295.4,266.7c0.9,1.8,2.6,2.1,4.3,2.7C298.8,266.6,297.1,266.2,295.4,266.7z"/>
		<path class="st20" d="M310.1,268.2c-1.8,0.1-2.7,0.6-3.7,1.3C308.4,269.6,309.4,269.3,310.1,268.2z"/>
		<path class="st20" d="M296.1,267.4c1.2,1.1,2.1,1.4,3.2,1.6C298.1,267.5,297.3,267.2,296.1,267.4z"/>
		<path class="st21" d="M305.4,268c1.8-1,0.8-3.9,0.8-3.9c1.1,0.1,2,4.7-0.8,5.7V268z"/>
		<path class="st22" d="M305.8,268.4c1.9-2.1,0.3-4.3,0.3-4.3c1.1,0.1,2.1,4.6-0.8,5.7L305.8,268.4z"/>
		<path class="st21" d="M306.7,268.7c0.3-0.1,0.4-0.3,0.2-0.6c-0.2-0.3-0.9-0.7-1.3-0.5c-0.4,0.2-0.4,0.6-0.4,0.6L306.7,268.7z"/>
		<path class="st22" d="M300.8,267.9c-1.2-1.7,1-3.9,1-3.9c-1.1-0.4-3.8,3.3-1.7,5.5L300.8,267.9z"/>
		<path class="st21" d="M300,267.8c-0.8-2.7,1.8-3.8,1.8-3.8c-1.1-0.4-3.9,3.3-1.7,5.5L300,267.8z"/>
		<path class="st21" d="M299.4,268c-0.2-0.3-0.3-0.5,0-0.6c0.3-0.2,1.1-0.2,1.4,0.1c0.3,0.3,0.1,0.7,0.1,0.7L299.4,268z"/>
		<polygon class="st23" points="306.1,303.1 306.6,292.3 303.4,289.4 304.9,303.1 		"/>
		<polygon class="st23" points="326.3,298.3 323.8,287.5 319.2,293.3 324.6,299.3 324.4,302.9 325.6,302.9 		"/>
		<path class="st24" d="M322.3,299.3c0.5,0.7,2,0.6,1.4,1.3c-0.8,1-1.6-1.2-1.6-1.2L322.3,299.3z"/>
		<path class="st24" d="M319.8,299.4c-0.4,0.6-1.8,0.7-1.2,1.3c0.8,0.7,1.5-1.2,1.5-1.2L319.8,299.4z"/>
		<path class="st24" d="M321,299.4c0,0.9-0.6,1.9,0,1.9c1,0,0-1,0.2-2C321.3,299.2,321,299.4,321,299.4z"/>
		<path class="st25" d="M324.9,295.4c0.5,3.3-5,7.4-8.3,1.4L324.9,295.4z"/>
		<path class="st24" d="M324.3,296.9c-0.5,2.6-4,4.9-6.5,1.2C319.6,298.5,322.8,297.9,324.3,296.9z"/>
		<path class="st26" d="M330.5,277.3c1.8,2,3.4,19.8-12.6,19.9c-16,0.2-18.5-13.6-18.5-18.4c0-4.9,6.6-7.7,9.2-4.9
			c2.6,2.9,7,4.3,12.1,2c3.3-1.5,2.9-0.4,4.1-0.2c0.6,0.1,1.1-0.5,1.9-0.3c0.7,0.2,0.9,0.8,1.6,1C329.3,276.8,329.3,276,330.5,277.3
			z"/>
		<path class="st27" d="M325.4,276c4,1.1,9.5,6.1,2.3,13.3c-7.2,7.2-18.3,4.9-23-3.4c-2.3-4.2,2-9.9,7.7-9
			C321.5,278.4,321.3,274.9,325.4,276z"/>
		<path class="st28" d="M324.4,276.9c3.6,1,8.7,4.7,2.3,11.1c-6.4,6.4-16.6,3.9-20.8-3.5c-2.1-3.7,1-8.3,5.1-7.1
			C318,279.4,320.8,275.9,324.4,276.9z"/>
		<path class="st29" d="M317.9,295.1c10.5-0.1,13.4-7.9,13.6-13.8c0.5,5.9-1.6,16-13.6,16.2c-16,0.2-18.5-13.8-18.5-18.6
			c0-0.2,0-0.4,0-0.6C300,284,303.5,295.2,317.9,295.1z"/>
		<path class="st26" d="M331.5,298.3l-2.7-10c-1.8,2.4-3.3,3.5-5.4,4.9l6.2,6l-0.2,3.6h1.3L331.5,298.3z"/>
		<polygon class="st26" points="310.3,303.1 311,292.3 307.1,289.6 309.1,303.1 		"/>
		<path class="st26" d="M334.4,267.8c-2.1-0.9-6.5-2-7.3,8.5l-1.1-0.4c1.4-3.9,1.7-11,8.5-8.4L334.4,267.8z"/>
		<path class="st23" d="M306.7,277.8c-1.5,1.9-5.4,6.9-5.8,8.9c0,0-1.8-4.4-1.7-7.5L306.7,277.8z"/>
		<path class="st26" d="M310,275.9c-2.6-2.5-2.7-7.4-3.5-7.8c-1.1-0.5-1.5,0.5-3.5,0.4c-1.9-0.1-2.3-1.1-3.2-0.9
			c-1.6,0.3-0.6,5.6-6.5,12c-0.7,0.8,2.9,5,10,0.7C308.4,277.2,310,275.9,310,275.9z"/>
		<path class="st28" d="M306.3,270.7c1.3,1.4,1,7.1-8.5,10.8c0,0-4.1,0-4.9-1.7c3-2.9,4.8-8.2,5.6-9.5
			C299.4,268.7,304,268.1,306.3,270.7z"/>
		<path class="st26" d="M301.3,281.4c0-1.3-4.2,1.4-3.7,2.7C298.2,285.4,301.2,284,301.3,281.4z"/>
		<path class="st28" d="M301.1,281.5c0-1-3.2,1.1-2.8,2.1C298.7,284.7,301,283.6,301.1,281.5z"/>
		<path class="st30" d="M299.2,282.1c1.4-1.7,5-2.6,4.7-3c-0.3-0.4-3.8,1.6-3.8,1.6s3.5-2.2,2.9-2.6c-0.5-0.3-2.7,2.1-2.7,2.1
			s1.1-1.7,0.7-1.9c-0.2-0.1-1,2-1.9,2.7L299.2,282.1z"/>
		<path class="st31" d="M299.2,278.6c-1-0.7-2.2,0.8-3.5,1.2c-0.9,0.2-2.4-0.9-3.2-0.2c-0.8,0.7,1,5,3.8,4.4
			C299.1,283.5,301.2,280.1,299.2,278.6z"/>
		<path class="st32" d="M333.5,267.5c-0.6,0.9-0.2,2.4,4.6,2.1C338.1,269.5,335.3,264.5,333.5,267.5z"/>
		<path class="st33" d="M334.7,268c-0.2,1.3,0.5,1.8,3.4,1.5C338.1,269.5,335.1,265.3,334.7,268z"/>
		<path class="st20" d="M305.7,272.1c-0.9,0.3-1.8,0.4-2.2-0.4l-0.5,0.5c1.3,0.8,2.2,0.5,2.8,0.1
			C305.7,272.3,305.7,272.2,305.7,272.1z"/>
		<path class="st20" d="M298.3,272.1c0.9,0.2,1.7,0.2,2.1-0.6l0.5,0.5c-1.1,1-2,0.8-2.6,0.4C298.3,272.3,298.3,272.2,298.3,272.1z"
			/>
		<polygon class="st34" points="310.4,301.8 310.3,303.1 309.1,303.1 308.9,301.8 		"/>
		<polygon class="st34" points="306.1,301.8 306.1,303.1 304.9,303.1 304.8,301.8 		"/>
		<polygon class="st34" points="325.8,301.7 325.6,302.9 324.4,302.9 324.5,301.7 		"/>
		<polygon class="st34" points="331,301.7 330.8,302.9 329.4,302.9 329.5,301.7 		"/>
		<path class="st35" d="M299.3,279.7c-0.4-0.8-0.9-1.1-2.8,0.4s-3,2.8-0.7,3.6C297,284.1,300.3,281.6,299.3,279.7z"/>
		<path class="st35" d="M292.9,281c0.2-1.1,1-1.2,3.3-0.4c2.3,0.8,1.4,2.4,0.2,3C295,284.4,292.8,282,292.9,281z"/>
		<path class="st36" d="M297.7,282.1c1-0.2,1.1-2.2,0.7-2.3C297.3,279.4,296.3,282.5,297.7,282.1z"/>
		<path class="st36" d="M295.7,282.2c-0.1-0.9-1.7-1.2-1.8-0.9C293.3,282.2,295.8,283.5,295.7,282.2z"/>
		<path class="st37" d="M325.8,282.9c-0.1-0.7-0.1-2.9,1.8-3.3c0,0-2.9-0.6-3-2c-0.1-0.9,0.3-1.7,1.4-2.2c0.2,0,0.4,0,0.6,0
			c0.7,0.2,0.9,0.8,1.6,1c1.1,0.3,1.1-0.5,2.3,0.8c0.8,0.9,1.5,4.8,0.8,8.9C327.6,286.5,326,283.7,325.8,282.9z"/>
		<path class="st37" d="M329.1,268c-0.4,1-1.4,3.2-1.8,3.3C327.8,270,328.3,268.8,329.1,268z"/>
		<path class="st37" d="M321.7,291.8c3.3-1.9,1.6-5,0.3-5.6c-1.8-0.8-4.7,0.8-4.7,0.8s-0.3-3.9-3.8-3c-4.3,1-0.9,8.5,0.3,9
			C315.2,293.6,318.9,293.5,321.7,291.8z"/>
		<path class="st37" d="M311.6,279.6c-2.2-0.6-2.4-3.1-2.4-3.1s-1.7,0.2-1.9-1.6c-0.1-1,0.4-1.5,0.9-1.7c0.1,0.3,0.3,0.6,0.4,0.9
			c1.4,1.5,3.4,2.6,5.7,3C314.5,277.9,313.7,280.1,311.6,279.6z"/>
		<path class="st37" d="M298.4,276.1c-0.8,1.6-2.4,2-4.1,1.9c1.2-1.6,2.1-3.5,2.8-5C298.1,273.6,299.1,274.7,298.4,276.1z"/>
	</g>
	<defs>
		<filter id="Adobe_OpacityMaskFilter" filterUnits="userSpaceOnUse" x="292.3" y="263.9" width="45.8" height="39.2">
			<feFlood  style="flood-color:white;flood-opacity:1" result="back"/>
			<feBlend  in="SourceGraphic" in2="back" mode="normal"/>
		</filter>
	</defs>
	
		<mask maskUnits="userSpaceOnUse" x="292.3" y="263.9" width="45.8" height="39.2" id="SVGID_00000064353659795799128320000004595781106012908196_">
		<g class="st38">
			<defs>
				
					<filter id="Adobe_OpacityMaskFilter_00000050636782408343385190000005323772735553050252_" filterUnits="userSpaceOnUse" x="292.3" y="263.9" width="45.8" height="39.2">
					<feFlood  style="flood-color:white;flood-opacity:1" result="back"/>
					<feBlend  in="SourceGraphic" in2="back" mode="normal"/>
				</filter>
			</defs>
			
				<mask maskUnits="userSpaceOnUse" x="292.3" y="263.9" width="45.8" height="39.2" id="SVGID_00000064353659795799128320000004595781106012908196_">
				<g style="filter:url(#Adobe_OpacityMaskFilter_00000050636782408343385190000005323772735553050252_);">
				</g>
			</mask>
			
				<linearGradient id="SVGID_00000065033821217840793620000012556240730241788303_" gradientUnits="userSpaceOnUse" x1="289.2582" y1="268.3059" x2="289.2582" y2="298.3378" gradientTransform="matrix(-1 0 0 1 604.4806 0)">
				<stop  offset="2.150540e-02" style="stop-color:#999999"/>
				<stop  offset="1" style="stop-color:#FFFFFF"/>
			</linearGradient>
			
				<path style="mask:url(#SVGID_00000064353659795799128320000004595781106012908196_);fill:url(#SVGID_00000065033821217840793620000012556240730241788303_);" d="
				M295.2,284.1c-2.2-0.5-3.4-3.8-2.7-4.4c0.2-0.2,0.4-0.2,0.6-0.2c0.4-0.4,0.8-0.9,1.1-1.3l0,0c0.7-1,1.4-2.1,1.9-3.2c0,0,0,0,0,0
				c0.1-0.2,0.2-0.4,0.3-0.6c0,0,0,0,0,0c0.1-0.2,0.2-0.4,0.3-0.6c0,0,0,0,0,0c0.1-0.2,0.2-0.4,0.3-0.6c0.6-1.3,1-2.3,1.3-2.8
				c0,0,0,0,0,0c0.1-0.5,0.2-0.9,0.3-1.2c-1.4-0.4-2.6-0.9-3.4-2.4c1.4-0.4,2.8-0.2,3.7,1.4c0-0.1,0.1-0.1,0.1-0.2
				c-0.1-0.2-0.1-0.3,0-0.5c0.1-1.9,1.7-3.7,2.5-3.4c0,0-1.7,1.7-1.3,3.3c0.1,0,0.2,0.1,0.2,0.1c0.2,0.2,0.2,0.3,0.2,0.5
				c0.5,0.2,1.1,0.5,2,0.6c1.2,0.1,1.8-0.3,2.3-0.4c0-0.1,0.1-0.3,0.3-0.4c0.1,0,0.2,0,0.3,0c1.1-1.2,0.3-3.5,0.3-3.5
				c0.8,0.1,1.6,2.5,0.8,4.2c0.1,0.1,0,0.3-0.1,0.4c0,0,0,0,0,0c1.1-0.7,2.2-1.1,4-1.1c-0.9,1.5-1.9,2.1-3.7,2.1
				c0.3,1,0.6,2.2,1.1,3.4c0,0,0,0,0,0c0.1,0.3,0.3,0.6,0.4,0.9c0.1,0.1,0.2,0.2,0.3,0.3c0,0,0,0,0,0c0.1,0.1,0.2,0.2,0.3,0.3
				c0,0,0,0,0,0c1.4,1.2,3.1,2.1,5.1,2.4c0,0,0,0,0,0c1.9,0.3,4,0,6.3-1c3.3-1.5,2.9-0.4,4.1-0.2c0.4,0,0.8-0.2,1.3-0.3h0
				c0,0,0,0,0,0c0,0,0.1,0,0.1,0c0.4-1.2,0.7-2.7,1.2-4.1l0,0c0,0,0,0,0,0c0.2-0.6,0.5-1.3,0.7-1.8c0,0,0,0,0,0
				c0.1-0.1,0.1-0.2,0.2-0.4c0,0,0,0,0-0.1c0.1-0.1,0.1-0.2,0.2-0.3c0,0,0,0,0-0.1c0.1-0.1,0.2-0.2,0.2-0.3c0,0,0,0,0,0
				c0.1-0.1,0.2-0.2,0.3-0.3c0,0,0,0,0,0c0,0,0,0,0,0c1-1,2.4-1.4,4.6-0.8c1.6-1.9,3.7,1.3,4.2,2.2c0.1,0.2,0.2,0.2,0.2,0.2
				c-1,0.1-1.7,0.1-2.3,0c-2.7-0.2-2.9-1.3-2.4-2.1c-2.2-0.6-5.5-0.2-6.2,8.3c0.3,0.3,0.5,0.6,1,0.7c1.1,0.3,1.1-0.5,2.3,0.8
				c0,0,0.1,0.1,0.1,0.1c0,0,0,0,0,0c0,0,0,0.1,0.1,0.1c0,0,0,0,0,0.1c0,0,0,0.1,0,0.1c0,0,0,0,0,0.1c0,0,0,0.1,0,0.1c0,0,0,0,0,0.1
				c0,0,0,0.1,0,0.1c0,0,0,0,0,0.1c0,0,0,0.1,0,0.1c0,0,0,0,0,0.1c0,0.1,0,0.1,0.1,0.2c0,0,0,0,0,0c0,0.1,0,0.2,0.1,0.2
				c0,0,0,0.1,0,0.1c0,0.1,0,0.1,0,0.2c0,0,0,0.1,0,0.1c0,0,0,0.1,0,0.2c0,0,0,0.1,0,0.1c0,0.1,0,0.1,0,0.2c0,0,0,0.1,0,0.1
				c0,0.1,0,0.1,0,0.2c0,0,0,0.1,0,0.1c0,0.1,0,0.1,0,0.2c0,0,0,0.1,0,0.1c0,0.1,0,0.1,0,0.2c0,0.1,0,0.1,0,0.2c0,0.1,0,0.2,0,0.3
				c0,0.1,0,0.1,0,0.2c0,0.1,0,0.1,0,0.2c0,0,0,0.1,0,0.1c0,0,0,0,0,0c0.2,2.8-0.1,6.6-1.9,9.9l1.9,7.2l-0.6,3.3l0,0l-0.2,1.2h-1.3
				l0.2-3.6l-4-3.9c0,0,0,0,0,0l0.7,2.9l-0.7,4.6h-1.2l0.2-3.6l-0.7-0.8c-0.3,0.4-0.8,0.7-1.2,1c0,0-0.1,0.1-0.1,0.1
				c0.6,0.5,1.6,0.5,1.1,1.1c-0.6,0.7-1.2-0.3-1.5-0.9c-0.3,0.1-0.6,0.2-0.9,0.3c0.1,0.7,0.5,1.3-0.2,1.3c-0.5,0-0.2-0.6-0.1-1.3
				c-0.3,0-0.7,0-1-0.2c-0.2,0.5-0.7,1.4-1.3,0.8c-0.5-0.5,0.4-0.6,1-1c0,0,0,0-0.1,0c-0.9-0.3-1.7-1-2.5-2.2
				c-2.4-0.1-4.5-0.4-6.3-1.1l-0.3,5.4l0,0l-0.1,1.3h-1.2l-0.2-1.3l0,0l-1-6.7c-0.5-0.3-0.9-0.6-1.4-0.9l-0.4,7.6l0,0l-0.1,1.3h-1.1
				l-0.1-1.3l0,0l-1.2-10.4c-1.2-1.5-2.1-3.2-2.7-4.8c0,0,0,0,0,0c0,0-0.5-1.1-0.9-2.7c-0.9,0.7-2,0.9-2.3,0.2
				c-0.8,2-1.4,3.3-1.7,3.2c-0.3-0.1,0.6-2.4,1.1-3.4c-0.1,0-0.1,0-0.2,0.1c-0.7,1.1-2.3,3.4-2.5,3.3c-0.2-0.1,1.2-2.2,2-3.1
				c0,0,0,0,0,0c-0.1,0-0.1,0-0.2,0c-0.8,0.8-2.4,2.2-2.5,1.8C293.4,285.7,294.4,284.8,295.2,284.1z"/>
		</g>
	</mask>
	
		<linearGradient id="SVGID_00000160883290788635629540000018230794428100840600_" gradientUnits="userSpaceOnUse" x1="289.2582" y1="268.3059" x2="289.2582" y2="298.3378" gradientTransform="matrix(-1 0 0 1 604.4806 0)">
		<stop  offset="2.150540e-02" style="stop-color:#FED996"/>
		<stop  offset="1" style="stop-color:#5B0D2B"/>
	</linearGradient>
	<path style="opacity:0.6;fill:url(#SVGID_00000160883290788635629540000018230794428100840600_);" d="M295.2,284.1
		c-2.2-0.5-3.4-3.8-2.7-4.4c0.2-0.2,0.4-0.2,0.6-0.2c0.4-0.4,0.8-0.9,1.1-1.3l0,0c0.7-1,1.4-2.1,1.9-3.2c0,0,0,0,0,0
		c0.1-0.2,0.2-0.4,0.3-0.6c0,0,0,0,0,0c0.1-0.2,0.2-0.4,0.3-0.6c0,0,0,0,0,0c0.1-0.2,0.2-0.4,0.3-0.6c0.6-1.3,1-2.3,1.3-2.8
		c0,0,0,0,0,0c0.1-0.5,0.2-0.9,0.3-1.2c-1.4-0.4-2.6-0.9-3.4-2.4c1.4-0.4,2.8-0.2,3.7,1.4c0-0.1,0.1-0.1,0.1-0.2
		c-0.1-0.2-0.1-0.3,0-0.5c0.1-1.9,1.7-3.7,2.5-3.4c0,0-1.7,1.7-1.3,3.3c0.1,0,0.2,0.1,0.2,0.1c0.2,0.2,0.2,0.3,0.2,0.5
		c0.5,0.2,1.1,0.5,2,0.6c1.2,0.1,1.8-0.3,2.3-0.4c0-0.1,0.1-0.3,0.3-0.4c0.1,0,0.2,0,0.3,0c1.1-1.2,0.3-3.5,0.3-3.5
		c0.8,0.1,1.6,2.5,0.8,4.2c0.1,0.1,0,0.3-0.1,0.4c0,0,0,0,0,0c1.1-0.7,2.2-1.1,4-1.1c-0.9,1.5-1.9,2.1-3.7,2.1
		c0.3,1,0.6,2.2,1.1,3.4c0,0,0,0,0,0c0.1,0.3,0.3,0.6,0.4,0.9c0.1,0.1,0.2,0.2,0.3,0.3c0,0,0,0,0,0c0.1,0.1,0.2,0.2,0.3,0.3
		c0,0,0,0,0,0c1.4,1.2,3.1,2.1,5.1,2.4c0,0,0,0,0,0c1.9,0.3,4,0,6.3-1c3.3-1.5,2.9-0.4,4.1-0.2c0.4,0,0.8-0.2,1.3-0.3h0c0,0,0,0,0,0
		c0,0,0.1,0,0.1,0c0.4-1.2,0.7-2.7,1.2-4.1l0,0c0,0,0,0,0,0c0.2-0.6,0.5-1.3,0.7-1.8c0,0,0,0,0,0c0.1-0.1,0.1-0.2,0.2-0.4
		c0,0,0,0,0-0.1c0.1-0.1,0.1-0.2,0.2-0.3c0,0,0,0,0-0.1c0.1-0.1,0.2-0.2,0.2-0.3c0,0,0,0,0,0c0.1-0.1,0.2-0.2,0.3-0.3c0,0,0,0,0,0
		c0,0,0,0,0,0c1-1,2.4-1.4,4.6-0.8c1.6-1.9,3.7,1.3,4.2,2.2c0.1,0.2,0.2,0.2,0.2,0.2c-1,0.1-1.7,0.1-2.3,0c-2.7-0.2-2.9-1.3-2.4-2.1
		c-2.2-0.6-5.5-0.2-6.2,8.3c0.3,0.3,0.5,0.6,1,0.7c1.1,0.3,1.1-0.5,2.3,0.8c0,0,0.1,0.1,0.1,0.1c0,0,0,0,0,0c0,0,0,0.1,0.1,0.1
		c0,0,0,0,0,0.1c0,0,0,0.1,0,0.1c0,0,0,0,0,0.1c0,0,0,0.1,0,0.1c0,0,0,0,0,0.1c0,0,0,0.1,0,0.1c0,0,0,0,0,0.1c0,0,0,0.1,0,0.1
		c0,0,0,0,0,0.1c0,0.1,0,0.1,0.1,0.2c0,0,0,0,0,0c0,0.1,0,0.2,0.1,0.2c0,0,0,0.1,0,0.1c0,0.1,0,0.1,0,0.2c0,0,0,0.1,0,0.1
		c0,0,0,0.1,0,0.2c0,0,0,0.1,0,0.1c0,0.1,0,0.1,0,0.2c0,0,0,0.1,0,0.1c0,0.1,0,0.1,0,0.2c0,0,0,0.1,0,0.1c0,0.1,0,0.1,0,0.2
		c0,0,0,0.1,0,0.1c0,0.1,0,0.1,0,0.2c0,0.1,0,0.1,0,0.2c0,0.1,0,0.2,0,0.3c0,0.1,0,0.1,0,0.2c0,0.1,0,0.1,0,0.2c0,0,0,0.1,0,0.1
		c0,0,0,0,0,0c0.2,2.8-0.1,6.6-1.9,9.9l1.9,7.2l-0.6,3.3l0,0l-0.2,1.2h-1.3l0.2-3.6l-4-3.9c0,0,0,0,0,0l0.7,2.9l-0.7,4.6h-1.2
		l0.2-3.6l-0.7-0.8c-0.3,0.4-0.8,0.7-1.2,1c0,0-0.1,0.1-0.1,0.1c0.6,0.5,1.6,0.5,1.1,1.1c-0.6,0.7-1.2-0.3-1.5-0.9
		c-0.3,0.1-0.6,0.2-0.9,0.3c0.1,0.7,0.5,1.3-0.2,1.3c-0.5,0-0.2-0.6-0.1-1.3c-0.3,0-0.7,0-1-0.2c-0.2,0.5-0.7,1.4-1.3,0.8
		c-0.5-0.5,0.4-0.6,1-1c0,0,0,0-0.1,0c-0.9-0.3-1.7-1-2.5-2.2c-2.4-0.1-4.5-0.4-6.3-1.1l-0.3,5.4l0,0l-0.1,1.3h-1.2l-0.2-1.3l0,0
		l-1-6.7c-0.5-0.3-0.9-0.6-1.4-0.9l-0.4,7.6l0,0l-0.1,1.3h-1.1l-0.1-1.3l0,0l-1.2-10.4c-1.2-1.5-2.1-3.2-2.7-4.8c0,0,0,0,0,0
		c0,0-0.5-1.1-0.9-2.7c-0.9,0.7-2,0.9-2.3,0.2c-0.8,2-1.4,3.3-1.7,3.2c-0.3-0.1,0.6-2.4,1.1-3.4c-0.1,0-0.1,0-0.2,0.1
		c-0.7,1.1-2.3,3.4-2.5,3.3c-0.2-0.1,1.2-2.2,2-3.1c0,0,0,0,0,0c-0.1,0-0.1,0-0.2,0c-0.8,0.8-2.4,2.2-2.5,1.8
		C293.4,285.7,294.4,284.8,295.2,284.1z"/>
</g>
<g>
	<g>
		<path class="st42" d="M465.6,296.5l1,7.5h0.7c0,0,0-6.4,0.5-8.2L465.6,296.5z"/>
		<path class="st42" d="M462.8,296.5l1,7.5h0.7c0,0,0-6.4,0.5-8.2L462.8,296.5z"/>
		<path class="st42" d="M476.8,296.5l1,7.5h0.7c0,0,0-6.4,0.5-8.2L476.8,296.5z"/>
		<path class="st42" d="M473.9,296.5l1,7.5h0.7c0,0,0-6.4,0.5-8.2L473.9,296.5z"/>
		<path class="st43" d="M484.5,274.9c2.3-0.6,0.6-6.3,1.3-6.3c0.7,0,1.2,5.2,0.4,7L484.5,274.9z"/>
		<path class="st44" d="M485.7,275c1.5-0.6-0.2-6.2,0.2-6.3c0.4,0,1.3,5.2,1,6.9L485.7,275z"/>
		<path class="st43" d="M481.9,275.1c-2.5-0.4-1.1-6.2-1.9-6.2c-0.7,0-0.8,5.3,0.1,7L481.9,275.1z"/>
		<path class="st44" d="M481.9,275.1c-1.5-0.3-1.2-6.1-1.7-6c-0.4,0.1,0,5.3,0.7,7L481.9,275.1z"/>
		<path class="st45" d="M465.6,296.5l0.5,3.4h1.4c0.1-1.6,0.2-3.3,0.4-4.1L465.6,296.5z"/>
		<path class="st45" d="M462.8,296.5l0.4,3.4h1.3c0.1-1.6,0.2-3.3,0.4-4.1L462.8,296.5z"/>
		<path class="st45" d="M476.8,296.5l0.5,3.4h1.4c0.1-1.6,0.2-3.3,0.4-4.1L476.8,296.5z"/>
		<path class="st45" d="M473.9,296.5l0.5,3.4h1.4c0.1-1.6,0.2-3.3,0.4-4.1L473.9,296.5z"/>
		<path class="st46" d="M462.9,282.9c-0.7-0.2-1.4,0.1-1.8,0.7c-1.3,1.7-2.2,4.5-1.5,4.8c0.9,0.4,1.2-0.9,1.2-0.9s-0.5,8.7,1,9.4
			c1.5,0.7,0.9-1.2,0.9-1.2s0.1,2.7,1.2,2.7c1.1,0,1.3-2.6,1.3-2.6s-0.2,2.6,1.5,2.5c1.7-0.1,1.6-1.7,1.6-1.7s0.5,2.1,2.9,2
			c1.6-0.1,2.5-1.8,2.5-1.8s0,1,1.2,0.9c1.2-0.1,1.3-0.8,1.3-0.8s0.1,1.4,1.9,1.4c1.4,0,1.6-1.2,1.6-1.2s0.6,0.6,1.4,0.6
			c1.2-0.1,1.8-5,1.8-5.5c0,0,2,3.1,1.2-7.5c-0.1-1.7,1.4-6.3,1.4-6.3l-5.2-1.8c0,0,1,4.7-2.4,7
			C474.9,285.6,465.9,283.6,462.9,282.9z"/>
		<g>
			<path class="st47" d="M464.5,295c0,0-0.2,2.6-1.3,2.6c-0.1,0-0.2,0-0.3-0.1c0.2,0.5,0.4,0.9,0.9,0.9c0.6,0,0.9-0.8,1.1-1.5
				C464.5,296.1,464.5,295,464.5,295z"/>
			<path class="st47" d="M462.1,295.8c0,0.4-0.3,0.7-1,0.4c0.1,0.4,0.3,0.7,0.5,0.8c0.4,0.2,0.7,0.2,0.8,0.1
				C462.3,296.6,462.2,296.2,462.1,295.8z"/>
			<path class="st47" d="M467.6,295.8c0,0,0.1,1.6-1.6,1.7c-0.3,0-0.6,0-0.7-0.2c0.2,0.6,0.6,1,1.3,1c1.3-0.1,1.5-1,1.5-1.4
				C467.7,296.3,467.6,295.8,467.6,295.8z"/>
			<path class="st47" d="M460.1,286.7c0,0-0.2,0.9-0.9,0.9c0,0.4,0,0.7,0.2,0.7c0.2,0.1,0.4,0.1,0.6,0
				C460.1,287.4,460.1,286.7,460.1,286.7z"/>
			<path class="st47" d="M485.5,278.4l-0.7-0.3c-0.4,1.3-1.3,4.4-1.2,5.7c0.8,10.6-1.2,7.5-1.2,7.5c0,0.4-0.6,5.4-1.8,5.5
				c-0.8,0-1.4-0.6-1.4-0.6s-0.2,1.2-1.6,1.2c-0.6,0-1-0.2-1.3-0.4c0.1,0.4,0.5,1.2,1.9,1.2c1.4,0,1.6-1.2,1.6-1.2s0.6,0.6,1.4,0.6
				c1.2-0.1,1.8-5,1.8-5.5c0,0,2,3.1,1.2-7.5C484,283,485.5,278.4,485.5,278.4z"/>
			<path class="st47" d="M475.5,296.2c0,0-0.1,0.7-1.3,0.8c-0.3,0-0.5,0-0.6-0.1c0,0.2,0.1,1,1.2,0.9c0.9,0,1.2-0.5,1.3-0.7
				C475.5,296.7,475.5,296.2,475.5,296.2z"/>
			<path class="st47" d="M473,296c0,0-0.9,1.7-2.5,1.8c-1.1,0-1.8-0.4-2.2-0.8c0.3,0.6,1,1.7,2.8,1.6c1.4,0,2.3-1.6,2.5-1.8
				C473,296.6,473,296,473,296z"/>
			<path class="st47" d="M480.3,278.7c0.1,2,0.7,3.6,3.6,5.7l0.3-2.7L480.3,278.7z"/>
		</g>
		<path class="st48" d="M477.8,283.6c-2.9,2-12,0-15-0.7c-0.7-0.2-1.4,0.1-1.8,0.7c-1.3,1.7-2.2,4.5-1.5,4.8
			c0.9,0.4,1.2-0.9,1.2-0.9s-0.2,3,0,5.7c1.8,0.7,3.8,1,6,1c7.3,0,13.3-4.3,13.3-9.6c0-0.9-0.2-1.8-0.5-2.6
			C479,282.6,478.5,283.2,477.8,283.6z"/>
		<path class="st47" d="M479,282.5c0.7,1.2,2.6,3.5,5.2,4.3l0,0.6c0,0-3.9-1.3-5.4-4.5L479,282.5z"/>
		<path class="st49" d="M479.2,282.2c0.7,1.2,2.6,3.5,5.2,4.3l0,0.6c0,0-3.9-1.3-5.4-4.5L479.2,282.2z"/>
		<path class="st50" d="M481.3,284.7c-1-0.9-1.7-1.8-2.1-2.5l-0.3,0.4c0.6,1.2,1.5,2.2,2.4,2.9V284.7z"/>
		<path class="st51" d="M463.1,283.5c-1.2-1.4-3.1-3.1-6.2-2.4l1.2,0.7l-1.2,0.6c0,0,1.1,0.1,1.2,0.3c0.2,0.4-0.4,1.4-0.4,1.4
			s3.7-1.6,5-0.4L463.1,283.5z"/>
		<path class="st46" d="M458.1,282.8c0.2,0.4-0.4,1.4-0.4,1.4s3.7-1.6,5-0.4l0.3-0.2c-0.6-0.7-1.9-1.1-3.4-1.1
			c-0.6,0-1.2,0.1-1.8,0.2C457.9,282.7,458,282.8,458.1,282.8z"/>
		<path class="st52" d="M486.2,284.5c-2.2,0.3-3.2,1.9-3.5,1.7c-0.3-0.2,0.5-0.9,1.1-1.5c0,0-1.8,0.9-1.8,0.6c0-0.2,0.8-0.6,1.7-1
			c0,0-3.2,0.8-1.7,0.1c1.5-0.7,5.7-0.7,5.7-0.7L486.2,284.5z"/>
		<path class="st52" d="M488.3,284.9c2.5,0.9,3.1,2.6,3.4,2.4c0.3-0.1-0.9-1.2-1.3-1.8c0,0,1.2,0.9,1.3,0.6c0.1-0.2-0.6-0.6-1.4-1.2
			c0,0,2.2,1.1,0.8,0.1c-1.3-1.1-4.1-1.2-4.1-1.2L488.3,284.9z"/>
		<path class="st53" d="M485.4,284.5c0,0.6,0.2,1.6,1.5,1.8c1.3,0.1,1.8-0.6,1.8-1.4L485.4,284.5z"/>
		<path class="st53" d="M485.9,275c0.9-1.2,1.3-2.4,4.1-2c0,0-0.7,3.1-3.9,2.5L485.9,275z"/>
		<path class="st46" d="M486.2,275c0.7-1,1.1-2.1,3.5-1.9C490.2,273.1,487.5,275.3,486.2,275z"/>
		<path class="st54" d="M486.7,275.3c1-0.1,1.8,0.1,2.6-1.7c0,0-2-0.7-2.8,1.4L486.7,275.3z"/>
		<path class="st55" d="M488.8,273.5c-0.7,0-1.7,0.1-2.2,1.5l0.2,0.3c0.3,0,0.5,0,0.8-0.1C487.6,274.2,488.3,273.7,488.8,273.5z"/>
		<path class="st46" d="M479.5,276.6c0-0.8,0.3-1.8,0.8-2c1.1-0.3,2.2,0.4,2.6,0.3c0.4,0,1.8-1,3.1-0.5c2,0.7,2.5,7,3.4,8.3
			c0.4,0.6,0.5,2.6-1.7,2.6c-3-0.1-2.5-1.3-3.7-2.4C479.6,279,479.5,277.7,479.5,276.6z"/>
		<path class="st56" d="M485.6,274.5c1.8,0.2,4.3,9.1,2,9.6C485.8,284.5,481.3,274,485.6,274.5z"/>
		<path class="st56" d="M480.2,275c1.2-1.2,4.9,1.5,5.9,2.3c1.3,1.2,2.3,6.3,1.4,6.8C486.6,284.6,477.3,278,480.2,275z"/>
		<path class="st57" d="M486.7,282.9c-0.7-1.3-2.2-3.6-1-3.6c1.2,0,3.5,3.2,3.5,3.2L486.7,282.9z"/>
		<path class="st46" d="M479.7,275.5c-1.2-0.9-1.9-2-4.6-0.7c0,0,1.6,2.8,4.4,1.2L479.7,275.5z"/>
		<path class="st56" d="M479.3,275.4c-1.2-0.9-1.5-1.7-4.2-0.6C476.5,275.8,477.2,275.8,479.3,275.4z"/>
		<path class="st54" d="M479.2,275.5c-0.8-0.6-1.3-1.3-3-0.5c0,0,1.1,1.8,3,0.8L479.2,275.5z"/>
		<path class="st58" d="M484.7,289.6c-0.6-0.9-0.9-2.3-0.4-2.5c0.5-0.2,1.9,1,1.9,1S485.7,289.1,484.7,289.6z"/>
		<path class="st59" d="M484.7,289.6c0-0.5,0.4-1.4,1.6-1.5C486.1,289.4,484.7,289.6,484.7,289.6z"/>
		<path class="st58" d="M485.3,288.9c0.2,0.2,0.9,0,0.4-0.4L485.3,288.9z"/>
		<path class="st60" d="M487.3,285.2c0.3,0,0.6-0.5,0.4-1.6l0.4,0c0,0-0.3,1.6,0.1,1.7H487.3z"/>
		<path class="st54" d="M487.8,283.9c0.6,0.1,1.6-1,1.4-1.4c-0.2-0.4-2.3-0.4-2.5-0.1C486.5,282.8,487.3,283.8,487.8,283.9z"/>
		<path class="st61" d="M481.8,278.1l0.3-0.7c0,0,0.7,0.9,2,0.2l0.1,0.2C483.4,278.3,482.7,278.6,481.8,278.1z"/>
		<path class="st61" d="M487.2,277.7l-0.3-0.6c0,0-0.6,0.8-1.8,0.1l-0.1,0.2C485.8,277.9,486.4,278.1,487.2,277.7z"/>
		<path class="st51" d="M477.2,284c-3.4,1.4-11.5-0.4-14.4-1.1c-0.7-0.2-1.4,0.1-1.8,0.7c-0.2,0.2-0.4,0.5-0.5,0.8
			C462.7,288.8,468.2,292.6,477.2,284z"/>
		<path class="st62" d="M487.7,283.6c-0.4-0.4-0.9-1-0.6-1c0.3-0.1,0.9,0.9,0.9,0.9L487.7,283.6z"/>
		<path class="st62" d="M488,283.4c0.3-0.4,0.9-1,1-0.7c0.1,0.3-0.8,1-0.8,1L488,283.4z"/>
		<path class="st46" d="M486.2,285.2c-0.2,0-0.3,0.7,0.3,0.8C487.3,286.1,488.4,285.6,486.2,285.2z"/>
		<path class="st63" d="M484.6,289.2c0.1-0.3,0.4-0.8,0.7-0.9c-0.3-0.4-1.1-1.1-1.1-0.9C484,287.9,484.6,289.2,484.6,289.2z"/>
		<path class="st55" d="M476.9,275.8c0.9-0.6,1.5-0.6,2.1-0.5c-0.7-0.5-1.2-1-2.8-0.3C476.2,275,476.4,275.5,476.9,275.8z"/>
	</g>
	<defs>
		
			<filter id="Adobe_OpacityMaskFilter_00000173126924262837410120000015448594767157886647_" filterUnits="userSpaceOnUse" x="456.9" y="268.6" width="34.8" height="35.5">
			<feFlood  style="flood-color:white;flood-opacity:1" result="back"/>
			<feBlend  in="SourceGraphic" in2="back" mode="normal"/>
		</filter>
	</defs>
	
		<mask maskUnits="userSpaceOnUse" x="456.9" y="268.6" width="34.8" height="35.5" id="SVGID_00000024697225747113639400000003248643833271286448_">
		<g style="filter:url(#Adobe_OpacityMaskFilter_00000173126924262837410120000015448594767157886647_);">
			<defs>
				
					<filter id="Adobe_OpacityMaskFilter_00000044873723719606164660000002111077815587150775_" filterUnits="userSpaceOnUse" x="456.9" y="268.6" width="34.8" height="35.5">
					<feFlood  style="flood-color:white;flood-opacity:1" result="back"/>
					<feBlend  in="SourceGraphic" in2="back" mode="normal"/>
				</filter>
			</defs>
			
				<mask maskUnits="userSpaceOnUse" x="456.9" y="268.6" width="34.8" height="35.5" id="SVGID_00000024697225747113639400000003248643833271286448_">
				<g style="filter:url(#Adobe_OpacityMaskFilter_00000044873723719606164660000002111077815587150775_);">
				</g>
			</mask>
			
				<linearGradient id="SVGID_00000106854058464899943810000011064823201433240988_" gradientUnits="userSpaceOnUse" x1="474.3094" y1="277.8967" x2="474.3094" y2="304.1575">
				<stop  offset="2.150540e-02" style="stop-color:#999999"/>
				<stop  offset="1" style="stop-color:#FFFFFF"/>
			</linearGradient>
			
				<path style="mask:url(#SVGID_00000024697225747113639400000003248643833271286448_);fill:url(#SVGID_00000106854058464899943810000011064823201433240988_);" d="
				M490.4,285.5c0,0,1.2,0.9,1.3,0.6c0.1-0.2-0.6-0.6-1.4-1.2c0,0,2.2,1.1,0.8,0.1c-0.4-0.4-1-0.6-1.6-0.8c0.2-0.6,0.1-1.2-0.1-1.5
				c-0.7-1-1.1-5-2.3-7.1c2.4-0.1,2.9-2.6,2.9-2.6c-1.7-0.3-2.6,0.1-3.2,0.7c-0.1-1.9-0.6-4.3-0.9-4.8c-0.1-0.2-0.2-0.3-0.3-0.3
				c-0.6,0,0.5,4-0.5,5.6c-1.1,0-2.1,0.6-2.4,0.7c-0.3,0-1-0.3-1.7-0.4c-0.8-1.5-0.7-5.3-1-5.4c0-0.1-0.1-0.1-0.2-0.1
				c-0.6,0-0.7,3.9-0.2,6.1c-0.1,0.1-0.1,0.3-0.2,0.4c-1.2-0.9-1.9-1.9-4.5-0.7c0,0,1.5,2.7,4.3,1.3c0,0.2,0,0.3,0,0.5
				c0,0.6,0.1,1.3,0.9,2.5c0,0,0,0,0,0c-0.1,0.9-0.3,1.9-0.9,2.9l0,0c-0.1,0.1-0.1,0.2-0.2,0.3c0,0,0-0.1-0.1-0.1l-0.3,0.4
				c0,0,0,0,0,0.1c0,0-0.1,0.1-0.1,0.1c0,0-0.1,0.1-0.1,0.1c0,0-0.1,0.1-0.1,0.1c0,0-0.1,0.1-0.1,0.1c0,0-0.1,0.1-0.1,0.1
				c-0.1,0-0.1,0.1-0.2,0.1c0,0-0.1,0.1-0.1,0.1c-0.1,0.1-0.2,0.1-0.3,0.2c-0.2,0.1-0.4,0.2-0.6,0.3c0,0,0,0,0,0
				c-0.1,0-0.2,0.1-0.2,0.1c0,0-0.1,0-0.1,0c-0.1,0-0.2,0-0.2,0.1c0,0-0.1,0-0.1,0c-0.1,0-0.2,0-0.2,0.1c0,0-0.1,0-0.1,0
				c-0.1,0-0.2,0-0.3,0c-0.1,0-0.1,0-0.2,0c-0.1,0-0.2,0-0.3,0c-0.1,0-0.1,0-0.2,0c-0.1,0-0.2,0-0.3,0c-0.1,0-0.1,0-0.2,0
				c-0.1,0-0.2,0-0.3,0c-0.1,0-0.1,0-0.2,0c-0.1,0-0.2,0-0.3,0c-0.1,0-0.1,0-0.2,0c-0.1,0-0.2,0-0.3,0c-0.1,0-0.1,0-0.2,0
				c-0.1,0-0.2,0-0.3,0c-0.1,0-0.1,0-0.2,0c-0.1,0-0.2,0-0.3,0c-0.1,0-0.1,0-0.2,0c-0.1,0-0.2,0-0.3,0c-0.1,0-0.1,0-0.2,0
				c-0.1,0-0.2,0-0.3,0c-0.1,0-0.1,0-0.2,0c-0.1,0-0.2,0-0.4,0c0,0-0.1,0-0.1,0c-0.5,0-0.9-0.1-1.4-0.2c0,0-0.1,0-0.1,0
				c-0.1,0-0.2,0-0.3-0.1c-0.1,0-0.1,0-0.2,0c-0.1,0-0.2,0-0.3,0c-0.1,0-0.1,0-0.2,0c-0.1,0-0.2,0-0.3,0c-0.1,0-0.2,0-0.2,0
				c-0.1,0-0.2,0-0.3,0c-0.1,0-0.2,0-0.2,0c-0.1,0-0.2,0-0.3,0c-0.1,0-0.2,0-0.2,0c-0.1,0-0.2,0-0.3,0c-0.1,0-0.2,0-0.2,0
				c-0.1,0-0.2,0-0.2,0c-0.1,0-0.2,0-0.2,0c-0.1,0-0.2,0-0.2,0c-0.1,0-0.2,0-0.2,0c-0.1,0-0.1,0-0.2,0c-0.1,0-0.2,0-0.2,0
				c-0.1,0-0.1,0-0.2,0c-0.1,0-0.1,0-0.2,0c-0.1,0-0.1,0-0.2,0c-0.1,0-0.1,0-0.2,0c-0.1,0-0.1,0-0.2,0c-0.1,0-0.1,0-0.2-0.1
				c0,0-0.1,0-0.1,0c-0.1,0-0.2,0-0.2-0.1c0,0-0.1,0-0.1,0c-0.1,0-0.2,0-0.3-0.1c-0.1,0-0.3,0-0.4,0c-1.2-1.2-2.9-2.3-5.5-1.7
				l1.2,0.7l-1.2,0.6c0,0,0.6,0.1,0.9,0.2h0c0,0,0.1,0,0.1,0c0,0,0,0,0,0c0,0,0,0,0.1,0c0,0,0,0,0,0c0,0,0,0,0,0c0,0,0,0,0,0
				c0,0,0,0,0,0c0.2,0.4-0.4,1.4-0.4,1.4s1.9-0.8,3.5-0.8c0,0-0.1,0.1-0.1,0.1c-0.1,0.1-0.2,0.2-0.3,0.4c0,0,0,0,0,0
				c-0.1,0.1-0.2,0.3-0.2,0.4c0,0,0,0,0,0l0,0c-0.7,1.1-1.2,2.5-1.2,3.3l0,0c0,0,0,0,0,0c0,0,0,0.1,0,0.1c0,0,0,0,0,0
				c0,0,0,0.1,0,0.1c0,0,0,0,0,0c0,0,0,0.1,0,0.1c0,0,0,0,0,0c0,0,0,0.1,0,0.1c0,0,0,0,0,0c0,0,0,0,0,0.1c0,0,0,0,0,0c0,0,0,0,0,0
				c0,0,0,0,0,0c0,0,0,0,0,0c0,0,0,0,0,0c0,0,0,0,0.1,0c0.1,0,0.2,0.1,0.3,0.1c0,0,0,0,0,0c0.6,0,0.9-0.9,0.9-0.9s0,0,0,0
				c0,0,0,0,0,0c0,0,0,0,0,0.1c0,0,0,0,0,0c0,0,0,0.1,0,0.1c0,0,0,0,0,0c0,0,0,0.1,0,0.1c0,0,0,0.1,0,0.1c0,0,0,0.1,0,0.1
				c0,0,0,0.1,0,0.1c0,0,0,0.1,0,0.1c0,0.1,0,0.1,0,0.2c0,0,0,0,0,0.1c0,0.1,0,0.2,0,0.2c0,0,0,0,0,0.1c0,0.1,0,0.1,0,0.2
				c0,0,0,0,0,0c0,0.1,0,0.2,0,0.3c0,0,0,0.1,0,0.1c0,0.1,0,0.2,0,0.3c0,0,0,0.1,0,0.1c0,0.2,0,0.4,0,0.6c0,0,0,0.1,0,0.1
				c0,0.1,0,0.2,0,0.4c0,0,0,0.1,0,0.1c0,0.1,0,0.2,0,0.3c0,0,0,0.1,0,0.1c0,0.1,0,0.1,0,0.2c0,0.1,0,0.1,0,0.2c0,0.1,0,0.2,0,0.3
				c0,0.1,0,0.1,0,0.2c0,0.1,0,0.2,0,0.2c0,0.1,0,0.1,0,0.2c0,0.1,0,0.1,0,0.2c0,0.1,0,0.2,0,0.3l0,0c0.1,1.2,0.2,2.2,0.5,2.9l0,0
				c0,0.1,0,0.1,0.1,0.2c0,0,0,0.1,0,0.1c0,0,0,0.1,0.1,0.1c0,0,0,0.1,0,0.1c0,0,0,0.1,0.1,0.1c0,0,0,0,0,0c0,0,0.1,0.1,0.1,0.1
				c0,0,0,0,0,0c0,0,0.1,0.1,0.1,0.1c0,0,0.1,0,0.1,0.1c0,0,0,0,0,0c0,0,0.1,0,0.1,0c0,0,0,0,0,0c0,0,0.1,0,0.1,0c0,0,0,0,0,0
				c0,0,0,0,0.1,0c0,0,0,0,0,0c0,0,0,0,0.1,0c0,0,0,0,0,0c0,0,0,0,0.1,0c0,0,0,0,0,0c0,0,0,0,0.1,0c0,0,0,0,0,0
				c0.2-0.1,0.2-0.3,0.3-0.5c0,0.2,0.1,0.4,0.1,0.6l0.9,6.9h0.7c0,0,0-2,0.1-4.1l0,0c0-0.1,0-0.1,0-0.2c0-0.1,0-0.1,0-0.2
				c0,0,0-0.1,0-0.1c0-0.1,0-0.1,0-0.2c0,0,0-0.1,0-0.1c0-0.1,0-0.1,0-0.2c0,0,0-0.1,0-0.1c0-0.1,0-0.1,0-0.2c0,0,0-0.1,0-0.1
				c0-0.1,0-0.1,0-0.2c0,0,0-0.1,0-0.1c0-0.1,0-0.2,0-0.3c0,0,0,0,0,0c0-0.1,0-0.2,0-0.2c0,0,0-0.1,0-0.1c0,0,0,0,0,0
				c0,0,0-0.1,0-0.1c0,0,0,0,0,0c0,0,0-0.1,0-0.1c0,0,0,0,0,0c0,0,0-0.1,0-0.1c0,0,0,0,0,0c0,0,0-0.1,0-0.1c0,0,0,0,0,0
				c0,0,0-0.1,0-0.1c0,0,0,0,0,0l0,0c0.1-0.6,0.2-1.1,0.2-1.1s-0.1,1,0.3,1.7c0,0,0,0,0,0c0,0.1,0.1,0.1,0.1,0.2c0,0,0,0,0,0
				c0,0.1,0.1,0.1,0.1,0.2c0,0,0,0,0,0c0,0.1,0.1,0.1,0.1,0.1c0,0,0,0,0,0c0,0,0.1,0,0.1,0.1l0.2,1.9l0,0l0.5,4.1h0.7
				c0,0,0-2,0.1-4.1l0,0c0-0.1,0-0.1,0-0.2c0,0,0-0.1,0-0.1c0-0.1,0-0.1,0-0.2c0-0.1,0-0.1,0-0.2c0-0.1,0-0.1,0-0.2
				c0-0.1,0-0.1,0-0.2c0-0.1,0-0.1,0-0.2c0-0.1,0-0.1,0-0.2c0-0.1,0-0.1,0-0.2c0-0.1,0-0.1,0-0.2c0,0,0-0.1,0-0.1c0-0.1,0-0.1,0-0.2
				c0,0,0,0,0,0c0,0,0,0,0,0c0,0,0.1-0.1,0.1-0.1c0,0,0,0,0,0c0,0,0.1-0.1,0.1-0.1c0,0,0,0,0,0c0,0,0.1-0.1,0.1-0.1c0,0,0,0,0,0
				c0,0,0-0.1,0.1-0.1c0,0,0,0,0,0c0,0,0-0.1,0.1-0.1c0,0,0,0,0,0c0,0,0-0.1,0-0.1c0,0,0,0,0,0c0,0,0-0.1,0-0.1c0,0,0,0,0,0
				c0,0,0-0.1,0-0.1c0-0.2,0-0.3,0-0.3s0,0.2,0.2,0.4l0,0c0,0,0,0,0,0c0,0,0,0.1,0,0.1c0,0,0,0,0,0.1c0,0,0,0.1,0,0.1
				c0,0,0.1,0.1,0.1,0.1c0,0,0,0,0,0.1c0,0,0.1,0.1,0.1,0.1c0,0,0,0,0,0.1c0,0.1,0.1,0.1,0.2,0.2c0,0,0,0,0,0c0.1,0,0.1,0.1,0.2,0.1
				c0,0,0,0,0.1,0c0.1,0.1,0.1,0.1,0.2,0.1c0,0,0,0,0,0c0.1,0,0.2,0.1,0.2,0.1c0,0,0,0,0.1,0c0.1,0,0.2,0.1,0.2,0.1c0,0,0,0,0.1,0
				c0.1,0,0.2,0.1,0.3,0.1c0,0,0,0,0.1,0c0.1,0,0.2,0,0.3,0c0,0,0.1,0,0.1,0c0.1,0,0.3,0,0.4,0c0.1,0,0.2,0,0.3,0c0,0,0.1,0,0.1,0
				c0.1,0,0.1,0,0.2,0c0,0,0.1,0,0.1,0c0.1,0,0.1,0,0.2-0.1c0,0,0.1,0,0.1,0c0,0,0.1,0,0.1-0.1c0,0,0.1,0,0.1-0.1
				c0,0,0.1-0.1,0.1-0.1c0,0,0.1,0,0.1-0.1c0,0,0.1-0.1,0.1-0.1c0,0,0,0,0.1-0.1c0,0,0.1-0.1,0.1-0.1c0,0,0,0,0.1-0.1
				c0,0,0.1-0.1,0.1-0.1c0,0,0,0,0.1-0.1c0,0,0.1-0.1,0.1-0.1c0,0,0,0,0-0.1c0,0,0.1-0.1,0.1-0.1c0,0,0,0,0,0c0,0,0.1-0.1,0.1-0.1
				c0,0,0,0,0,0c0,0,0-0.1,0.1-0.1c0,0,0,0,0,0c0,0,0-0.1,0.1-0.1c0.1-0.1,0.1-0.2,0.1-0.2s0,0,0,0l0,0c0,0,0,0,0,0c0,0,0,0,0,0
				c0,0,0,0,0,0c0,0,0,0,0,0c0,0,0,0,0,0c0,0,0,0,0,0c0,0,0,0,0,0.1c0,0,0,0,0,0c0,0,0,0,0,0.1c0,0,0,0,0,0c0,0.1,0.1,0.2,0.1,0.3
				c0,0,0,0,0,0c0,0,0,0,0.1,0.1c0,0,0,0,0,0c0,0,0,0,0.1,0.1c0,0,0,0,0,0c0,0,0,0,0.1,0c0,0,0,0,0,0l0.8,6.4h0.7c0,0,0-2,0.1-4.1
				l0,0c0-0.1,0-0.2,0-0.2c0,0,0-0.1,0-0.1c0-0.1,0-0.1,0-0.2c0,0,0-0.1,0-0.1c0-0.1,0-0.1,0-0.2c0,0,0-0.1,0-0.1c0-0.1,0-0.1,0-0.2
				c0,0,0-0.1,0-0.1c0-0.1,0-0.1,0-0.2c0-0.1,0-0.1,0-0.2c0-0.1,0-0.1,0-0.2c0-0.1,0-0.1,0-0.2c0,0,0-0.1,0-0.1c0-0.1,0-0.2,0-0.3
				c0,0,0-0.1,0-0.1c0-0.1,0-0.1,0-0.2c0,0,0,0,0,0c0,0,0,0,0-0.1c0,0,0,0,0,0c0,0,0-0.1,0-0.1c0,0,0,0,0,0l0,0c0-0.1,0-0.1,0-0.1
				s0,0.1,0.1,0.2c0,0,0,0,0,0c0,0,0,0,0,0.1c0,0,0,0,0,0.1c0,0,0,0,0,0c0,0,0,0.1,0.1,0.1c0,0,0,0,0,0c0,0,0,0.1,0.1,0.1
				c0,0,0,0,0,0c0,0,0.1,0.1,0.1,0.1c0,0,0,0,0,0c0,0,0.1,0.1,0.1,0.1c0,0,0,0,0,0c0,0,0.1,0.1,0.1,0.1c0,0,0,0,0,0
				c0,0,0.1,0.1,0.1,0.1c0,0,0,0,0,0c0,0,0,0,0.1,0l0.2,1.8l0,0l0.5,4.1h0.7c0,0,0-2,0.1-4.1c0,0,0-0.1,0-0.1c0-0.1,0-0.2,0-0.2
				c0,0,0-0.1,0-0.1c0-0.1,0-0.1,0-0.2c0-0.1,0-0.1,0-0.2c0-0.1,0-0.1,0-0.2c0-0.1,0-0.1,0-0.2c0-0.1,0-0.1,0-0.2c0-0.1,0-0.1,0-0.2
				c0-0.1,0-0.1,0-0.2c0,0,0-0.1,0-0.1c0.8-0.3,0.9-1.1,0.9-1.1s0.6,0.6,1.4,0.6c1.2-0.1,1.8-5,1.8-5.5c0,0,1.5,2.2,1.4-3.6
				c0.1,0.3,0.3,0.6,0.4,0.9c0,0,1.4-0.1,1.6-1.5c0,0-1.4-1.2-1.9-1c0,0,0,0-0.1,0l0-0.6c0,0-0.1,0-0.1,0c0-0.4,0-0.8-0.1-1.2
				c0.4-0.2,0.8-0.4,1.3-0.6c0.1,0.6,0.3,1.4,1.5,1.5c1.2,0.1,1.7-0.4,1.8-1.2c2.1,0.9,2.7,2.4,3,2.3
				C492,287.2,490.8,286.1,490.4,285.5z M484.3,283c0.2,0.3,0.4,0.5,0.6,0.8c-0.2,0-0.5,0-0.7,0.1
				C484.2,283.6,484.2,283.3,484.3,283z"/>
		</g>
	</mask>
	
		<linearGradient id="SVGID_00000163073216937704260300000000843148685021449092_" gradientUnits="userSpaceOnUse" x1="474.3094" y1="277.8967" x2="474.3094" y2="304.1575">
		<stop  offset="2.150540e-02" style="stop-color:#FED996"/>
		<stop  offset="1" style="stop-color:#241941"/>
	</linearGradient>
	<path style="opacity:0.6;fill:url(#SVGID_00000163073216937704260300000000843148685021449092_);" d="M490.4,285.5
		c0,0,1.2,0.9,1.3,0.6c0.1-0.2-0.6-0.6-1.4-1.2c0,0,2.2,1.1,0.8,0.1c-0.4-0.4-1-0.6-1.6-0.8c0.2-0.6,0.1-1.2-0.1-1.5
		c-0.7-1-1.1-5-2.3-7.1c2.4-0.1,2.9-2.6,2.9-2.6c-1.7-0.3-2.6,0.1-3.2,0.7c-0.1-1.9-0.6-4.3-0.9-4.8c-0.1-0.2-0.2-0.3-0.3-0.3
		c-0.6,0,0.5,4-0.5,5.6c-1.1,0-2.1,0.6-2.4,0.7c-0.3,0-1-0.3-1.7-0.4c-0.8-1.5-0.7-5.3-1-5.4c0-0.1-0.1-0.1-0.2-0.1
		c-0.6,0-0.7,3.9-0.2,6.1c-0.1,0.1-0.1,0.3-0.2,0.4c-1.2-0.9-1.9-1.9-4.5-0.7c0,0,1.5,2.7,4.3,1.3c0,0.2,0,0.3,0,0.5
		c0,0.6,0.1,1.3,0.9,2.5c0,0,0,0,0,0c-0.1,0.9-0.3,1.9-0.9,2.9l0,0c-0.1,0.1-0.1,0.2-0.2,0.3c0,0,0-0.1-0.1-0.1l-0.3,0.4
		c0,0,0,0,0,0.1c0,0-0.1,0.1-0.1,0.1c0,0-0.1,0.1-0.1,0.1c0,0-0.1,0.1-0.1,0.1c0,0-0.1,0.1-0.1,0.1c0,0-0.1,0.1-0.1,0.1
		c-0.1,0-0.1,0.1-0.2,0.1c0,0-0.1,0.1-0.1,0.1c-0.1,0.1-0.2,0.1-0.3,0.2c-0.2,0.1-0.4,0.2-0.6,0.3c0,0,0,0,0,0
		c-0.1,0-0.2,0.1-0.2,0.1c0,0-0.1,0-0.1,0c-0.1,0-0.2,0-0.2,0.1c0,0-0.1,0-0.1,0c-0.1,0-0.2,0-0.2,0.1c0,0-0.1,0-0.1,0
		c-0.1,0-0.2,0-0.3,0c-0.1,0-0.1,0-0.2,0c-0.1,0-0.2,0-0.3,0c-0.1,0-0.1,0-0.2,0c-0.1,0-0.2,0-0.3,0c-0.1,0-0.1,0-0.2,0
		c-0.1,0-0.2,0-0.3,0c-0.1,0-0.1,0-0.2,0c-0.1,0-0.2,0-0.3,0c-0.1,0-0.1,0-0.2,0c-0.1,0-0.2,0-0.3,0c-0.1,0-0.1,0-0.2,0
		c-0.1,0-0.2,0-0.3,0c-0.1,0-0.1,0-0.2,0c-0.1,0-0.2,0-0.3,0c-0.1,0-0.1,0-0.2,0c-0.1,0-0.2,0-0.3,0c-0.1,0-0.1,0-0.2,0
		c-0.1,0-0.2,0-0.3,0c-0.1,0-0.1,0-0.2,0c-0.1,0-0.2,0-0.4,0c0,0-0.1,0-0.1,0c-0.5,0-0.9-0.1-1.4-0.2c0,0-0.1,0-0.1,0
		c-0.1,0-0.2,0-0.3-0.1c-0.1,0-0.1,0-0.2,0c-0.1,0-0.2,0-0.3,0c-0.1,0-0.1,0-0.2,0c-0.1,0-0.2,0-0.3,0c-0.1,0-0.2,0-0.2,0
		c-0.1,0-0.2,0-0.3,0c-0.1,0-0.2,0-0.2,0c-0.1,0-0.2,0-0.3,0c-0.1,0-0.2,0-0.2,0c-0.1,0-0.2,0-0.3,0c-0.1,0-0.2,0-0.2,0
		c-0.1,0-0.2,0-0.2,0c-0.1,0-0.2,0-0.2,0c-0.1,0-0.2,0-0.2,0c-0.1,0-0.2,0-0.2,0c-0.1,0-0.1,0-0.2,0c-0.1,0-0.2,0-0.2,0
		c-0.1,0-0.1,0-0.2,0c-0.1,0-0.1,0-0.2,0c-0.1,0-0.1,0-0.2,0c-0.1,0-0.1,0-0.2,0c-0.1,0-0.1,0-0.2,0c-0.1,0-0.1,0-0.2-0.1
		c0,0-0.1,0-0.1,0c-0.1,0-0.2,0-0.2-0.1c0,0-0.1,0-0.1,0c-0.1,0-0.2,0-0.3-0.1c-0.1,0-0.3,0-0.4,0c-1.2-1.2-2.9-2.3-5.5-1.7l1.2,0.7
		l-1.2,0.6c0,0,0.6,0.1,0.9,0.2h0c0,0,0.1,0,0.1,0c0,0,0,0,0,0c0,0,0,0,0.1,0c0,0,0,0,0,0c0,0,0,0,0,0c0,0,0,0,0,0c0,0,0,0,0,0
		c0.2,0.4-0.4,1.4-0.4,1.4s1.9-0.8,3.5-0.8c0,0-0.1,0.1-0.1,0.1c-0.1,0.1-0.2,0.2-0.3,0.4c0,0,0,0,0,0c-0.1,0.1-0.2,0.3-0.2,0.4
		c0,0,0,0,0,0l0,0c-0.7,1.1-1.2,2.5-1.2,3.3l0,0c0,0,0,0,0,0c0,0,0,0.1,0,0.1c0,0,0,0,0,0c0,0,0,0.1,0,0.1c0,0,0,0,0,0
		c0,0,0,0.1,0,0.1c0,0,0,0,0,0c0,0,0,0.1,0,0.1c0,0,0,0,0,0c0,0,0,0,0,0.1c0,0,0,0,0,0c0,0,0,0,0,0c0,0,0,0,0,0c0,0,0,0,0,0
		c0,0,0,0,0,0c0,0,0,0,0.1,0c0.1,0,0.2,0.1,0.3,0.1c0,0,0,0,0,0c0.6,0,0.9-0.9,0.9-0.9s0,0,0,0c0,0,0,0,0,0c0,0,0,0,0,0.1
		c0,0,0,0,0,0c0,0,0,0.1,0,0.1c0,0,0,0,0,0c0,0,0,0.1,0,0.1c0,0,0,0.1,0,0.1c0,0,0,0.1,0,0.1c0,0,0,0.1,0,0.1c0,0,0,0.1,0,0.1
		c0,0.1,0,0.1,0,0.2c0,0,0,0,0,0.1c0,0.1,0,0.2,0,0.2c0,0,0,0,0,0.1c0,0.1,0,0.1,0,0.2c0,0,0,0,0,0c0,0.1,0,0.2,0,0.3
		c0,0,0,0.1,0,0.1c0,0.1,0,0.2,0,0.3c0,0,0,0.1,0,0.1c0,0.2,0,0.4,0,0.6c0,0,0,0.1,0,0.1c0,0.1,0,0.2,0,0.4c0,0,0,0.1,0,0.1
		c0,0.1,0,0.2,0,0.3c0,0,0,0.1,0,0.1c0,0.1,0,0.1,0,0.2c0,0.1,0,0.1,0,0.2c0,0.1,0,0.2,0,0.3c0,0.1,0,0.1,0,0.2c0,0.1,0,0.2,0,0.2
		c0,0.1,0,0.1,0,0.2c0,0.1,0,0.1,0,0.2c0,0.1,0,0.2,0,0.3l0,0c0.1,1.2,0.2,2.2,0.5,2.9l0,0c0,0.1,0,0.1,0.1,0.2c0,0,0,0.1,0,0.1
		c0,0,0,0.1,0.1,0.1c0,0,0,0.1,0,0.1c0,0,0,0.1,0.1,0.1c0,0,0,0,0,0c0,0,0.1,0.1,0.1,0.1c0,0,0,0,0,0c0,0,0.1,0.1,0.1,0.1
		c0,0,0.1,0,0.1,0.1c0,0,0,0,0,0c0,0,0.1,0,0.1,0c0,0,0,0,0,0c0,0,0.1,0,0.1,0c0,0,0,0,0,0c0,0,0,0,0.1,0c0,0,0,0,0,0c0,0,0,0,0.1,0
		c0,0,0,0,0,0c0,0,0,0,0.1,0c0,0,0,0,0,0c0,0,0,0,0.1,0c0,0,0,0,0,0c0.2-0.1,0.2-0.3,0.3-0.5c0,0.2,0.1,0.4,0.1,0.6l0.9,6.9h0.7
		c0,0,0-2,0.1-4.1l0,0c0-0.1,0-0.1,0-0.2c0-0.1,0-0.1,0-0.2c0,0,0-0.1,0-0.1c0-0.1,0-0.1,0-0.2c0,0,0-0.1,0-0.1c0-0.1,0-0.1,0-0.2
		c0,0,0-0.1,0-0.1c0-0.1,0-0.1,0-0.2c0,0,0-0.1,0-0.1c0-0.1,0-0.1,0-0.2c0,0,0-0.1,0-0.1c0-0.1,0-0.2,0-0.3c0,0,0,0,0,0
		c0-0.1,0-0.2,0-0.2c0,0,0-0.1,0-0.1c0,0,0,0,0,0c0,0,0-0.1,0-0.1c0,0,0,0,0,0c0,0,0-0.1,0-0.1c0,0,0,0,0,0c0,0,0-0.1,0-0.1
		c0,0,0,0,0,0c0,0,0-0.1,0-0.1c0,0,0,0,0,0c0,0,0-0.1,0-0.1c0,0,0,0,0,0l0,0c0.1-0.6,0.2-1.1,0.2-1.1s-0.1,1,0.3,1.7c0,0,0,0,0,0
		c0,0.1,0.1,0.1,0.1,0.2c0,0,0,0,0,0c0,0.1,0.1,0.1,0.1,0.2c0,0,0,0,0,0c0,0.1,0.1,0.1,0.1,0.1c0,0,0,0,0,0c0,0,0.1,0,0.1,0.1
		l0.2,1.9l0,0l0.5,4.1h0.7c0,0,0-2,0.1-4.1l0,0c0-0.1,0-0.1,0-0.2c0,0,0-0.1,0-0.1c0-0.1,0-0.1,0-0.2c0-0.1,0-0.1,0-0.2
		c0-0.1,0-0.1,0-0.2c0-0.1,0-0.1,0-0.2c0-0.1,0-0.1,0-0.2c0-0.1,0-0.1,0-0.2c0-0.1,0-0.1,0-0.2c0-0.1,0-0.1,0-0.2c0,0,0-0.1,0-0.1
		c0-0.1,0-0.1,0-0.2c0,0,0,0,0,0c0,0,0,0,0,0c0,0,0.1-0.1,0.1-0.1c0,0,0,0,0,0c0,0,0.1-0.1,0.1-0.1c0,0,0,0,0,0c0,0,0.1-0.1,0.1-0.1
		c0,0,0,0,0,0c0,0,0-0.1,0.1-0.1c0,0,0,0,0,0c0,0,0-0.1,0.1-0.1c0,0,0,0,0,0c0,0,0-0.1,0-0.1c0,0,0,0,0,0c0,0,0-0.1,0-0.1
		c0,0,0,0,0,0c0,0,0-0.1,0-0.1c0-0.2,0-0.3,0-0.3s0,0.2,0.2,0.4l0,0c0,0,0,0,0,0c0,0,0,0.1,0,0.1c0,0,0,0,0,0.1c0,0,0,0.1,0,0.1
		c0,0,0.1,0.1,0.1,0.1c0,0,0,0,0,0.1c0,0,0.1,0.1,0.1,0.1c0,0,0,0,0,0.1c0,0.1,0.1,0.1,0.2,0.2c0,0,0,0,0,0c0.1,0,0.1,0.1,0.2,0.1
		c0,0,0,0,0.1,0c0.1,0.1,0.1,0.1,0.2,0.1c0,0,0,0,0,0c0.1,0,0.2,0.1,0.2,0.1c0,0,0,0,0.1,0c0.1,0,0.2,0.1,0.2,0.1c0,0,0,0,0.1,0
		c0.1,0,0.2,0.1,0.3,0.1c0,0,0,0,0.1,0c0.1,0,0.2,0,0.3,0c0,0,0.1,0,0.1,0c0.1,0,0.3,0,0.4,0c0.1,0,0.2,0,0.3,0c0,0,0.1,0,0.1,0
		c0.1,0,0.1,0,0.2,0c0,0,0.1,0,0.1,0c0.1,0,0.1,0,0.2-0.1c0,0,0.1,0,0.1,0c0,0,0.1,0,0.1-0.1c0,0,0.1,0,0.1-0.1c0,0,0.1-0.1,0.1-0.1
		c0,0,0.1,0,0.1-0.1c0,0,0.1-0.1,0.1-0.1c0,0,0,0,0.1-0.1c0,0,0.1-0.1,0.1-0.1c0,0,0,0,0.1-0.1c0,0,0.1-0.1,0.1-0.1c0,0,0,0,0.1-0.1
		c0,0,0.1-0.1,0.1-0.1c0,0,0,0,0-0.1c0,0,0.1-0.1,0.1-0.1c0,0,0,0,0,0c0,0,0.1-0.1,0.1-0.1c0,0,0,0,0,0c0,0,0-0.1,0.1-0.1
		c0,0,0,0,0,0c0,0,0-0.1,0.1-0.1c0.1-0.1,0.1-0.2,0.1-0.2s0,0,0,0l0,0c0,0,0,0,0,0c0,0,0,0,0,0c0,0,0,0,0,0c0,0,0,0,0,0c0,0,0,0,0,0
		c0,0,0,0,0,0c0,0,0,0,0,0.1c0,0,0,0,0,0c0,0,0,0,0,0.1c0,0,0,0,0,0c0,0.1,0.1,0.2,0.1,0.3c0,0,0,0,0,0c0,0,0,0,0.1,0.1c0,0,0,0,0,0
		c0,0,0,0,0.1,0.1c0,0,0,0,0,0c0,0,0,0,0.1,0c0,0,0,0,0,0l0.8,6.4h0.7c0,0,0-2,0.1-4.1l0,0c0-0.1,0-0.2,0-0.2c0,0,0-0.1,0-0.1
		c0-0.1,0-0.1,0-0.2c0,0,0-0.1,0-0.1c0-0.1,0-0.1,0-0.2c0,0,0-0.1,0-0.1c0-0.1,0-0.1,0-0.2c0,0,0-0.1,0-0.1c0-0.1,0-0.1,0-0.2
		c0-0.1,0-0.1,0-0.2c0-0.1,0-0.1,0-0.2c0-0.1,0-0.1,0-0.2c0,0,0-0.1,0-0.1c0-0.1,0-0.2,0-0.3c0,0,0-0.1,0-0.1c0-0.1,0-0.1,0-0.2
		c0,0,0,0,0,0c0,0,0,0,0-0.1c0,0,0,0,0,0c0,0,0-0.1,0-0.1c0,0,0,0,0,0l0,0c0-0.1,0-0.1,0-0.1s0,0.1,0.1,0.2c0,0,0,0,0,0
		c0,0,0,0,0,0.1c0,0,0,0,0,0.1c0,0,0,0,0,0c0,0,0,0.1,0.1,0.1c0,0,0,0,0,0c0,0,0,0.1,0.1,0.1c0,0,0,0,0,0c0,0,0.1,0.1,0.1,0.1
		c0,0,0,0,0,0c0,0,0.1,0.1,0.1,0.1c0,0,0,0,0,0c0,0,0.1,0.1,0.1,0.1c0,0,0,0,0,0c0,0,0.1,0.1,0.1,0.1c0,0,0,0,0,0c0,0,0,0,0.1,0
		l0.2,1.8l0,0l0.5,4.1h0.7c0,0,0-2,0.1-4.1c0,0,0-0.1,0-0.1c0-0.1,0-0.2,0-0.2c0,0,0-0.1,0-0.1c0-0.1,0-0.1,0-0.2c0-0.1,0-0.1,0-0.2
		c0-0.1,0-0.1,0-0.2c0-0.1,0-0.1,0-0.2c0-0.1,0-0.1,0-0.2c0-0.1,0-0.1,0-0.2c0-0.1,0-0.1,0-0.2c0,0,0-0.1,0-0.1
		c0.8-0.3,0.9-1.1,0.9-1.1s0.6,0.6,1.4,0.6c1.2-0.1,1.8-5,1.8-5.5c0,0,1.5,2.2,1.4-3.6c0.1,0.3,0.3,0.6,0.4,0.9c0,0,1.4-0.1,1.6-1.5
		c0,0-1.4-1.2-1.9-1c0,0,0,0-0.1,0l0-0.6c0,0-0.1,0-0.1,0c0-0.4,0-0.8-0.1-1.2c0.4-0.2,0.8-0.4,1.3-0.6c0.1,0.6,0.3,1.4,1.5,1.5
		c1.2,0.1,1.7-0.4,1.8-1.2c2.1,0.9,2.7,2.4,3,2.3C492,287.2,490.8,286.1,490.4,285.5z M484.3,283c0.2,0.3,0.4,0.5,0.6,0.8
		c-0.2,0-0.5,0-0.7,0.1C484.2,283.6,484.2,283.3,484.3,283z"/>
</g>
<g>
	<g>
		<path class="st68" d="M470.4,293c0,0.2,0.1,0.8-0.1,1c0,0,0.3-0.1,0.4-0.4L470.4,293z"/>
		<path class="st68" d="M470.5,293.5c0,0.2,0.1,0.8-0.1,1c0,0,0.3-0.1,0.4-0.4L470.5,293.5z"/>
		<path class="st69" d="M467.2,302.2c0,0.1,0.3,2,0.3,2l0.2,0c0,0-0.3-1.7,0.2-2.1L467.2,302.2z"/>
		<path class="st69" d="M468.5,302.2c0,0.1,0.3,2,0.3,2l0.2,0c0,0-0.3-1.7,0.2-2.1L468.5,302.2z"/>
		<path class="st69" d="M466.8,304.2c0.3-0.3,0.8-0.5,0.8-0.5s0.7,0.2,0.9,0.5L466.8,304.2z"/>
		<path class="st69" d="M468.1,304.2c0.3-0.3,0.8-0.5,0.8-0.5s0.7,0.2,0.9,0.5L468.1,304.2z"/>
		<path class="st70" d="M468.8,302.5c0.8,0,2.1-1.7,2.1-1.7l-4.3,0.3C466.6,301.2,467.9,302.5,468.8,302.5z"/>
		<path class="st71" d="M463.8,295.2c-0.9-0.5-0.8-1.6-1.3-1.6c-0.3,0,0.1,1.2,0.1,1.2s-0.2-0.6-0.5-0.5c-0.3,0.1,0.2,1,0.2,1
			s-0.8-1.4-1-0.3c-0.1,0.5,0.3,1,0.8,1.5c-0.1,0-0.1,0-0.1,0.1c0,0.3,0.1,0.6,0.3,0.8c-0.1,0-0.2,0-0.2,0.1c0,0.4,0.4,0.8,0.8,1.1
			c-0.1,0-0.1,0.1-0.1,0.2c0.1,0.3,0.5,0.6,0.8,0.8c-0.2-0.1-0.5-0.1-0.4,0c0.3,0.5,1.7,1.7,3.2,2.1L463.8,295.2z"/>
		<path class="st68" d="M462.5,294.7c0,0-0.2-0.6-0.5-0.5c-0.3,0.1,0.2,1,0.2,1s-0.8-1.4-1-0.3c-0.1,0.5,0.2,1.1,0.7,1.6
			c-0.1,0-0.1,0-0.1,0.1c0,0.3,0.3,0.5,0.4,0.8c-0.1,0-0.2,0-0.2,0.1c0,0.7,1.3,2.2,3.4,2.3l-1.7-4.7
			C463.4,294.8,461.9,292,462.5,294.7z"/>
		<path class="st72" d="M472.1,291c-0.2-0.1-0.3,0.1-0.4,0.3c0-0.4-0.2-1.4-0.9-1.2c-0.8,0.2-0.4,0.9-0.4,0.9s-0.2-0.2-0.3-0.2
			c-0.1,0.1,0,0.3,0,0.3s-0.7-0.3-0.8,0.3c-0.1,0.6,0.4,1.1,1.3,0.9l1.7-0.2C472.2,292.1,472.7,291.2,472.1,291z"/>
		<path class="st73" d="M472,291.1c0.1,0,0.3,0.1,0.4,0.3c0,0.1-0.1,0.7-0.5,0.5C471.7,291.7,471.7,291.2,472,291.1z"/>
		<path class="st68" d="M463.4,295c2.3,1.2,6.3,0.9,6.9,0c1-1.4-0.7-2.3,0.5-3c2-1.3,2.5,1.6,2.4,4.5c-0.1,1.6-1.4,5.8-5.5,5.5
			C462,301.7,463.4,295,463.4,295z"/>
		<path class="st74" d="M470.3,292.5c0.2-0.6,1.6-1.4,2.2-0.4c0.6,1,0.3,3.1-0.7,3.1C470.8,295.3,470.2,292.9,470.3,292.5z"/>
		<path class="st71" d="M472.1,294.1c0,0.4,0.5,1.2,1,1.2l0-1.4L472.1,294.1z"/>
		<path class="st71" d="M472.4,292c0.3,0.9,0.4,2.3,0.4,3.8c-0.1,1.6-1.4,5.8-5.5,5.5c-1.7-0.1-2.8-0.8-3.4-1.7
			c0.6,1.3,1.7,2.3,3.9,2.5c4.1,0.2,5.5-4,5.5-5.5C473.3,294.6,473.1,292.7,472.4,292z"/>
		<path class="st71" d="M471,295.8c0.9,0.7,1.4,6-3.8,5.7c-4.7-0.3-4.5-5.7-3.7-6.8c0,0,2.1,1.6,3.5,1.6
			C468.9,296.3,469.8,294.9,471,295.8z"/>
		<path class="st71" d="M467.6,302.7c0.8,0,2.7-1.4,2.7-1.4l-5-0.1C465.4,301.1,466.6,302.6,467.6,302.7z"/>
		<path class="st69" d="M472.2,294.2c-0.1,0.1,0.2,0.4,0.4,0.5c0.2,0,1-0.4,0.9-0.7C473.5,293.9,472.3,293.9,472.2,294.2z"/>
		<path class="st75" d="M472.1,294.2c-0.1-0.1,0.7-0.9,0.9-0.9c0.2,0,1,0.4,0.9,0.4C473.8,293.9,472.2,294.3,472.1,294.2z"/>
		<path class="st76" d="M471.7,293.5c0.2,0,0.2-1-0.2-0.8C471.1,292.8,471.5,293.5,471.7,293.5z"/>
		<path class="st76" d="M472.6,293.3c0.2,0,0.3-0.8-0.1-0.7C472.1,292.7,472.4,293.3,472.6,293.3z"/>
		<path class="st74" d="M470.9,295.3c0.9,0.7,1.3,5.8-3.3,5.4c-4.7-0.4-4.5-4.7-4.1-6.3c0,0,2,1.3,3.4,1.3
			C468.8,295.8,469.6,294.4,470.9,295.3z"/>
		<g>
			<path class="st77" d="M470.9,295.3c-1.2-0.9-2.1,0.5-4.1,0.4c-1.3,0-3.1-1.1-3.4-1.3c-0.2,1.5,3.1,6,7.9,3.9
				C471.7,297.1,471.3,295.7,470.9,295.3z"/>
		</g>
		<path class="st68" d="M466.9,302c-0.1,0.2,0.6,0.4,0.8,0.4c0.3,0,0.9-0.4,0.8-0.5S466.9,301.9,466.9,302z"/>
		<path class="st78" d="M472.2,294.1c-0.1-0.1,0.4-0.5,0.5-0.5c0.1,0,0.8,0.2,0.8,0.2C473.4,293.9,472.3,294.2,472.2,294.1z"/>
		<path class="st73" d="M469.3,291.7c0-0.2,0-0.6,0.3-0.6c0.3,0,1.2,0.5,1,0.9S469.4,292.3,469.3,291.7z"/>
		<path class="st73" d="M470.4,290.4c0.1-0.2,0.6-0.3,0.8-0.2c0.2,0.2,0.5,1.1,0.1,1.3C470.9,291.7,470.1,291,470.4,290.4z"/>
		<path class="st73" d="M470.5,291.3c0,0-0.1,0.1-0.2,0c-0.1-0.1-0.2-0.3-0.1-0.4C470.2,290.9,470.5,291.2,470.5,291.3z"/>
		<path class="st74" d="M461.9,295.9c-0.4-0.4-0.9-1.1-0.6-1.4s1.3,1.3,1.3,1.5S462.3,296.3,461.9,295.9z"/>
		<path class="st74" d="M462.3,294.9c-0.1-0.3-0.3-0.6-0.2-0.7c0.1-0.1,0.6,0.8,0.5,0.9C462.6,295.2,462.4,295.2,462.3,294.9z"/>
		<path class="st74" d="M463.1,294.3c0.1,0.3,0.1,0.6-0.2,0.5c-0.2-0.1-0.5-1.1-0.5-1.3C462.5,293.4,463,294,463.1,294.3z"/>
		<path class="st74" d="M462.4,296.8c0.2,0.1,0.1,0.5-0.1,0.4c-0.4-0.2-0.5-0.5-0.5-0.6C461.8,296.4,462.2,296.6,462.4,296.8z"/>
		<path class="st71" d="M463.6,298.4c0.3,0.2,1.5,1,2.9,1.2c0,0-1.1,0.4-2.7-0.6L463.6,298.4z"/>
		<path class="st71" d="M463.2,297c0.3,0.2,1.3,1.1,2.7,1.3c0,0-1.1,0.3-2.6-0.7L463.2,297z"/>
		<path class="st71" d="M463.2,295.5c0.2,0.3,0.9,1,2.3,1.4c0,0-1.2,0-2.3-0.8L463.2,295.5z"/>
	</g>
	<defs>
		
			<filter id="Adobe_OpacityMaskFilter_00000168819279850736597800000007666230619853547393_" filterUnits="userSpaceOnUse" x="461.2" y="290.1" width="12.7" height="14.2">
			<feFlood  style="flood-color:white;flood-opacity:1" result="back"/>
			<feBlend  in="SourceGraphic" in2="back" mode="normal"/>
		</filter>
	</defs>
	
		<mask maskUnits="userSpaceOnUse" x="461.2" y="290.1" width="12.7" height="14.2" id="SVGID_00000112618162773817530680000012359837471242951812_">
		<g style="filter:url(#Adobe_OpacityMaskFilter_00000168819279850736597800000007666230619853547393_);">
			<defs>
				
					<filter id="Adobe_OpacityMaskFilter_00000031196127355911304990000000418014961257071290_" filterUnits="userSpaceOnUse" x="461.2" y="290.1" width="12.7" height="14.2">
					<feFlood  style="flood-color:white;flood-opacity:1" result="back"/>
					<feBlend  in="SourceGraphic" in2="back" mode="normal"/>
				</filter>
			</defs>
			
				<mask maskUnits="userSpaceOnUse" x="461.2" y="290.1" width="12.7" height="14.2" id="SVGID_00000112618162773817530680000012359837471242951812_">
				<g style="filter:url(#Adobe_OpacityMaskFilter_00000031196127355911304990000000418014961257071290_);">
				</g>
			</mask>
			
				<linearGradient id="SVGID_00000033354870428087378730000002873026339376644009_" gradientUnits="userSpaceOnUse" x1="467.5033" y1="290.6751" x2="467.5033" y2="304.1581">
				<stop  offset="2.150540e-02" style="stop-color:#999999"/>
				<stop  offset="1" style="stop-color:#FFFFFF"/>
			</linearGradient>
			
				<path style="mask:url(#SVGID_00000112618162773817530680000012359837471242951812_);fill:url(#SVGID_00000033354870428087378730000002873026339376644009_);" d="
				M473,293.3C473,293.3,473,293.3,473,293.3C473,293.3,473,293.3,473,293.3c0-0.1,0-0.2-0.1-0.2c0,0,0,0,0-0.1c0,0,0-0.1,0-0.1
				c0,0,0,0,0-0.1c0,0,0-0.1,0-0.1c0,0,0,0,0-0.1c0,0,0-0.1,0-0.1c0,0,0,0,0-0.1c0,0,0-0.1-0.1-0.1c0,0,0,0,0,0c0,0,0-0.1-0.1-0.1
				c0,0,0,0,0,0c0,0,0-0.1-0.1-0.1c0,0,0,0,0,0c0,0-0.1-0.1-0.1-0.1c0,0-0.1-0.1-0.1-0.1c0.1-0.3,0.2-0.8-0.2-0.9
				c-0.2-0.1-0.3,0.1-0.4,0.3c0-0.4-0.2-1.4-0.9-1.2c-0.8,0.2-0.4,0.9-0.4,0.9s-0.2-0.2-0.3-0.2c-0.1,0.1,0,0.3,0,0.3
				s-0.7-0.3-0.8,0.3c-0.1,0.6,0.4,1,1.2,0.9c0,0.1-0.1,0.1-0.1,0.2c0,0.1,0,0.3,0,0.5c0,0.2,0.1,0.7-0.1,0.9c0,0,0.1-0.1,0.2-0.1
				c0,0.2,0,0.5-0.1,0.6c0,0,0.1-0.1,0.2-0.2c0,0.2-0.1,0.5-0.3,0.8c-1-0.2-1.9,0.7-3.5,0.7c0,0-0.1,0-0.1,0c0,0,0,0,0,0
				c0,0-0.1,0-0.1,0c0,0,0,0-0.1,0c0,0-0.1,0-0.1,0c0,0,0,0-0.1,0c0,0-0.1,0-0.1,0c0,0,0,0-0.1,0c0,0-0.1,0-0.1,0c0,0,0,0-0.1,0
				c0,0-0.1,0-0.1,0c0,0,0,0-0.1,0c0,0-0.1,0-0.1,0c0,0,0,0-0.1,0c0,0-0.1,0-0.1,0c0,0,0,0-0.1,0c0,0-0.1,0-0.1,0c0,0,0,0-0.1,0
				c0,0-0.1,0-0.1,0c0,0,0,0-0.1,0c0,0-0.1,0-0.1,0c0,0,0,0,0,0c0,0-0.1,0-0.1,0c0,0,0,0,0,0c0,0-0.1,0-0.1-0.1c0,0,0,0,0,0
				c-0.1,0-0.2-0.1-0.3-0.1c0,0,0,0,0,0c0,0-0.1,0-0.1,0c0,0,0,0,0,0c0,0-0.1,0-0.1,0c0,0,0,0,0,0c0,0-0.1,0-0.1,0c0,0,0,0,0,0
				c0,0,0,0-0.1,0c0,0,0,0,0,0c0,0,0,0-0.1,0c0,0,0,0,0,0c0,0,0,0-0.1,0c0,0,0,0,0,0c0,0,0,0-0.1,0c0,0,0,0,0,0c0,0,0,0-0.1,0
				c0,0,0,0,0,0c0,0,0,0,0,0c0,0,0,0,0,0c0,0,0,0,0,0c0,0,0,0,0,0c0,0,0,0,0,0c0,0,0,0,0,0c0,0,0,0,0,0c-0.1,0-0.1-0.1-0.2-0.1l0,0
				c0,0,0,0,0,0c0,0,0,0.1,0,0.1c-0.1-0.1-0.2-0.2-0.3-0.4c-0.1-0.2-0.3-0.4-0.4-0.6c0,0-0.1-0.1-0.1-0.1c-0.1-0.1-0.1-0.1-0.1-0.1
				c-0.1,0-0.1,0.3,0,1.1c0,0,0-0.1,0-0.1c0-0.1-0.1-0.2-0.2-0.3c0,0-0.1-0.1-0.1-0.1c0,0-0.1,0-0.2,0c-0.2,0.1,0,0.5,0.1,0.8
				c-0.2-0.3-0.5-0.6-0.7-0.5c-0.1,0-0.2,0.2-0.2,0.4c-0.1,0.5,0.2,1.1,0.7,1.6c-0.1,0-0.1,0-0.1,0.1c0,0.3,0.2,0.5,0.4,0.7
				c0,0,0,0,0,0.1c-0.1,0-0.2,0-0.2,0.1c0,0.2,0.1,0.3,0.2,0.5c0.1,0.2,0.3,0.5,0.5,0.6c0,0,0.1,0.1,0.2,0.1c-0.1,0-0.1,0.1-0.1,0.2
				c0.1,0.3,0.5,0.6,0.8,0.8c-0.2-0.1-0.5-0.1-0.4,0c0.3,0.5,1.4,1.5,2.8,2c0.4,0.3,0.9,0.7,1.4,0.9c0.1,0.4,0.1,0.9,0.2,1.2
				c-0.2,0.1-0.5,0.2-0.7,0.4l1.7,0c0,0,0,0,0,0l1.3,0c-0.2-0.2-0.6-0.4-0.8-0.5c0-0.3-0.1-0.9,0-1.3c0.5-0.1,1-0.6,1.4-1.1
				c2-1.2,2.7-3.8,2.8-4.9c0-0.1,0-0.2,0-0.2c0,0,0,0,0-0.1c0-0.1,0-0.2,0-0.2c0,0,0,0,0,0c0-0.1,0-0.1,0-0.2c0,0,0,0,0-0.1
				c0-0.1,0-0.2,0-0.2c0,0,0,0,0,0c0-0.1,0-0.1,0-0.2c0,0,0,0,0-0.1c0-0.1,0-0.1,0-0.2c0,0,0,0,0-0.1c0-0.1,0-0.1,0-0.2
				c0,0,0,0,0-0.1c0-0.1,0-0.1,0-0.2c0,0,0,0,0-0.1c0,0,0,0,0,0c0.2-0.1,0.4-0.3,0.4-0.5c0.2-0.1,0.3-0.1,0.3-0.1
				C473.9,293.7,473.2,293.4,473,293.3z M467.7,302.6c0.2,0,0.4-0.1,0.6-0.2c0.1,0,0.1,0,0.2,0.1c0.1,0.4,0.2,0.9,0.2,1.3
				c-0.1,0-0.3,0.1-0.5,0.2c-0.2-0.1-0.5-0.2-0.6-0.3C467.7,303.5,467.7,303,467.7,302.6z"/>
		</g>
	</mask>
	
		<linearGradient id="SVGID_00000158030104991367392160000016648269090893115800_" gradientUnits="userSpaceOnUse" x1="467.5033" y1="290.6751" x2="467.5033" y2="304.1581">
		<stop  offset="2.150540e-02" style="stop-color:#FED996"/>
		<stop  offset="1" style="stop-color:#241941"/>
	</linearGradient>
	<path style="opacity:0.6;fill:url(#SVGID_00000158030104991367392160000016648269090893115800_);" d="M473,293.3
		C473,293.3,473,293.3,473,293.3C473,293.3,473,293.3,473,293.3c0-0.1,0-0.2-0.1-0.2c0,0,0,0,0-0.1c0,0,0-0.1,0-0.1c0,0,0,0,0-0.1
		c0,0,0-0.1,0-0.1c0,0,0,0,0-0.1c0,0,0-0.1,0-0.1c0,0,0,0,0-0.1c0,0,0-0.1-0.1-0.1c0,0,0,0,0,0c0,0,0-0.1-0.1-0.1c0,0,0,0,0,0
		c0,0,0-0.1-0.1-0.1c0,0,0,0,0,0c0,0-0.1-0.1-0.1-0.1c0,0-0.1-0.1-0.1-0.1c0.1-0.3,0.2-0.8-0.2-0.9c-0.2-0.1-0.3,0.1-0.4,0.3
		c0-0.4-0.2-1.4-0.9-1.2c-0.8,0.2-0.4,0.9-0.4,0.9s-0.2-0.2-0.3-0.2c-0.1,0.1,0,0.3,0,0.3s-0.7-0.3-0.8,0.3c-0.1,0.6,0.4,1,1.2,0.9
		c0,0.1-0.1,0.1-0.1,0.2c0,0.1,0,0.3,0,0.5c0,0.2,0.1,0.7-0.1,0.9c0,0,0.1-0.1,0.2-0.1c0,0.2,0,0.5-0.1,0.6c0,0,0.1-0.1,0.2-0.2
		c0,0.2-0.1,0.5-0.3,0.8c-1-0.2-1.9,0.7-3.5,0.7c0,0-0.1,0-0.1,0c0,0,0,0,0,0c0,0-0.1,0-0.1,0c0,0,0,0-0.1,0c0,0-0.1,0-0.1,0
		c0,0,0,0-0.1,0c0,0-0.1,0-0.1,0c0,0,0,0-0.1,0c0,0-0.1,0-0.1,0c0,0,0,0-0.1,0c0,0-0.1,0-0.1,0c0,0,0,0-0.1,0c0,0-0.1,0-0.1,0
		c0,0,0,0-0.1,0c0,0-0.1,0-0.1,0c0,0,0,0-0.1,0c0,0-0.1,0-0.1,0c0,0,0,0-0.1,0c0,0-0.1,0-0.1,0c0,0,0,0-0.1,0c0,0-0.1,0-0.1,0
		c0,0,0,0,0,0c0,0-0.1,0-0.1,0c0,0,0,0,0,0c0,0-0.1,0-0.1-0.1c0,0,0,0,0,0c-0.1,0-0.2-0.1-0.3-0.1c0,0,0,0,0,0c0,0-0.1,0-0.1,0
		c0,0,0,0,0,0c0,0-0.1,0-0.1,0c0,0,0,0,0,0c0,0-0.1,0-0.1,0c0,0,0,0,0,0c0,0,0,0-0.1,0c0,0,0,0,0,0c0,0,0,0-0.1,0c0,0,0,0,0,0
		c0,0,0,0-0.1,0c0,0,0,0,0,0c0,0,0,0-0.1,0c0,0,0,0,0,0c0,0,0,0-0.1,0c0,0,0,0,0,0c0,0,0,0,0,0c0,0,0,0,0,0c0,0,0,0,0,0c0,0,0,0,0,0
		c0,0,0,0,0,0c0,0,0,0,0,0c0,0,0,0,0,0c-0.1,0-0.1-0.1-0.2-0.1l0,0c0,0,0,0,0,0c0,0,0,0.1,0,0.1c-0.1-0.1-0.2-0.2-0.3-0.4
		c-0.1-0.2-0.3-0.4-0.4-0.6c0,0-0.1-0.1-0.1-0.1c-0.1-0.1-0.1-0.1-0.1-0.1c-0.1,0-0.1,0.3,0,1.1c0,0,0-0.1,0-0.1
		c0-0.1-0.1-0.2-0.2-0.3c0,0-0.1-0.1-0.1-0.1c0,0-0.1,0-0.2,0c-0.2,0.1,0,0.5,0.1,0.8c-0.2-0.3-0.5-0.6-0.7-0.5
		c-0.1,0-0.2,0.2-0.2,0.4c-0.1,0.5,0.2,1.1,0.7,1.6c-0.1,0-0.1,0-0.1,0.1c0,0.3,0.2,0.5,0.4,0.7c0,0,0,0,0,0.1c-0.1,0-0.2,0-0.2,0.1
		c0,0.2,0.1,0.3,0.2,0.5c0.1,0.2,0.3,0.5,0.5,0.6c0,0,0.1,0.1,0.2,0.1c-0.1,0-0.1,0.1-0.1,0.2c0.1,0.3,0.5,0.6,0.8,0.8
		c-0.2-0.1-0.5-0.1-0.4,0c0.3,0.5,1.4,1.5,2.8,2c0.4,0.3,0.9,0.7,1.4,0.9c0.1,0.4,0.1,0.9,0.2,1.2c-0.2,0.1-0.5,0.2-0.7,0.4l1.7,0
		c0,0,0,0,0,0l1.3,0c-0.2-0.2-0.6-0.4-0.8-0.5c0-0.3-0.1-0.9,0-1.3c0.5-0.1,1-0.6,1.4-1.1c2-1.2,2.7-3.8,2.8-4.9c0-0.1,0-0.2,0-0.2
		c0,0,0,0,0-0.1c0-0.1,0-0.2,0-0.2c0,0,0,0,0,0c0-0.1,0-0.1,0-0.2c0,0,0,0,0-0.1c0-0.1,0-0.2,0-0.2c0,0,0,0,0,0c0-0.1,0-0.1,0-0.2
		c0,0,0,0,0-0.1c0-0.1,0-0.1,0-0.2c0,0,0,0,0-0.1c0-0.1,0-0.1,0-0.2c0,0,0,0,0-0.1c0-0.1,0-0.1,0-0.2c0,0,0,0,0-0.1c0,0,0,0,0,0
		c0.2-0.1,0.4-0.3,0.4-0.5c0.2-0.1,0.3-0.1,0.3-0.1C473.9,293.7,473.2,293.4,473,293.3z M467.7,302.6c0.2,0,0.4-0.1,0.6-0.2
		c0.1,0,0.1,0,0.2,0.1c0.1,0.4,0.2,0.9,0.2,1.3c-0.1,0-0.3,0.1-0.5,0.2c-0.2-0.1-0.5-0.2-0.6-0.3C467.7,303.5,467.7,303,467.7,302.6
		z"/>
</g>
<polyline class="st0" points="222.7,193.2 207.8,146.6 187.6,146.6 "/>
<polyline class="st0" points="222,210.4 207.8,312.8 187.6,312.8 "/>
<polyline class="st0" points="222.3,205 207.8,287.3 187.6,287.3 "/>
<polyline class="st0" points="222.7,193.8 207.8,174.2 187.6,174.2 "/>
<polyline class="st0" points="223,198.3 207.8,205 187.6,205 "/>
<polyline class="st0" points="223,201.2 207.8,242.6 187.6,242.6 "/>
<polyline class="st0" points="223,205 207.8,267.9 187.6,267.9 "/>
<path class="st4" d="M224.1,214.8H222v-30.7l0,0c1.2,0,2.1,0.9,2.1,2.1V214.8z"/>
</svg>
